<svg width="24" height="25" viewBox="0 0 24 25" fill="none" xmlns="http://www.w3.org/2000/svg">
<path fill-rule="evenodd" clip-rule="evenodd" d="M15.909 2.9375C19.053 2.9375 21.165 5.0905 21.165 8.2945V17.4905C21.165 20.7225 19.118 22.8245 15.95 22.8445L8.257 22.8475C5.113 22.8475 3 20.6945 3 17.4905V8.2945C3 5.0615 5.047 2.9605 8.215 2.9415L15.908 2.9375H15.909ZM15.909 4.4375L8.22 4.4415C5.892 4.4555 4.5 5.8955 4.5 8.2945V17.4905C4.5 19.9055 5.905 21.3475 8.256 21.3475L15.945 21.3445C18.273 21.3305 19.665 19.8885 19.665 17.4905V8.2945C19.665 5.8795 18.261 4.4375 15.909 4.4375ZM15.7161 16.4112C16.1301 16.4112 16.4661 16.7472 16.4661 17.1612C16.4661 17.5752 16.1301 17.9112 15.7161 17.9112H8.4961C8.0821 17.9112 7.7461 17.5752 7.7461 17.1612C7.7461 16.7472 8.0821 16.4112 8.4961 16.4112H15.7161ZM15.7161 12.2247C16.1301 12.2247 16.4661 12.5607 16.4661 12.9747C16.4661 13.3887 16.1301 13.7247 15.7161 13.7247H8.4961C8.0821 13.7247 7.7461 13.3887 7.7461 12.9747C7.7461 12.5607 8.0821 12.2247 8.4961 12.2247H15.7161ZM11.2508 8.0479C11.6648 8.0479 12.0008 8.3839 12.0008 8.7979C12.0008 9.2119 11.6648 9.5479 11.2508 9.5479H8.4958C8.0818 9.5479 7.7458 9.2119 7.7458 8.7979C7.7458 8.3839 8.0818 8.0479 8.4958 8.0479H11.2508Z" fill="#2F50F5"/>
</svg>
