<svg width="24" height="25" viewBox="0 0 24 25" fill="none" xmlns="http://www.w3.org/2000/svg">
<path fill-rule="evenodd" clip-rule="evenodd" d="M19.84 18.6426C19.84 21.9386 15.32 22.3196 11.921 22.3196L11.6778 22.3194C9.5122 22.3141 4 22.1774 4 18.6226C4 15.3939 8.33835 14.9624 11.7115 14.9461L12.1642 14.9458C14.3296 14.9511 19.84 15.0878 19.84 18.6426ZM11.921 16.4456C7.66 16.4456 5.5 17.1776 5.5 18.6226C5.5 20.0806 7.66 20.8196 11.921 20.8196C16.181 20.8196 18.34 20.0876 18.34 18.6426C18.34 17.1846 16.181 16.4456 11.921 16.4456ZM11.921 2.44922C14.849 2.44922 17.23 4.83122 17.23 7.75922C17.23 10.6872 14.849 13.0682 11.921 13.0682H11.889C8.967 13.0592 6.6 10.6762 6.60997 7.75622C6.60997 4.83122 8.992 2.44922 11.921 2.44922ZM11.921 3.87722C9.78 3.87722 8.03798 5.61822 8.03798 7.75922C8.031 9.89322 9.76 11.6332 11.892 11.6412L11.921 12.3552V11.6412C14.061 11.6412 15.802 9.89922 15.802 7.75922C15.802 5.61822 14.061 3.87722 11.921 3.87722Z" fill="#2F50F5"/>
</svg>
