<svg width="251" height="251" viewBox="0 0 251 251" fill="none" xmlns="http://www.w3.org/2000/svg">
<path d="M193.8 72.9484C193.8 72.9484 177.71 51.3857 151 49.863C124.29 48.3402 109.392 66.563 98.4582 80.2325C87.5245 93.902 54.4241 85.9989 34.3791 106.957C14.3341 127.916 24.0546 140.058 32.8814 152.205C41.7081 164.352 50.1505 166.189 50.1505 176.204C50.1505 186.219 55.0132 199.589 74.1446 202.624C93.2759 205.66 113.016 187.147 126.681 194.137C140.345 201.126 163.276 206.588 177.325 202.624C191.374 198.66 187.115 184.097 202.288 179.239C217.46 174.382 232.048 159.194 229.921 142.794C227.795 126.393 215.648 123.358 210.485 107.567C205.323 91.7752 198.054 79.6284 193.8 72.9484Z" fill="#42C8A7"/>
<path opacity="0.7" d="M193.8 72.9484C193.8 72.9484 177.71 51.3857 151 49.863C124.29 48.3402 109.392 66.563 98.4582 80.2325C87.5245 93.902 54.4241 85.9989 34.3791 106.957C14.3341 127.916 24.0546 140.058 32.8814 152.205C41.7081 164.352 50.1505 166.189 50.1505 176.204C50.1505 186.219 55.0132 199.589 74.1446 202.624C93.2759 205.66 113.016 187.147 126.681 194.137C140.345 201.126 163.276 206.588 177.325 202.624C191.374 198.66 187.115 184.097 202.288 179.239C217.46 174.382 232.048 159.194 229.921 142.794C227.795 126.393 215.648 123.358 210.485 107.567C205.323 91.7752 198.054 79.6284 193.8 72.9484Z" fill="white"/>
<path d="M212.102 206.038C212.102 206.922 184.144 207.636 149.696 207.636C115.247 207.636 87.2891 206.922 87.2891 206.038C87.2891 205.154 115.247 204.445 149.696 204.445C184.144 204.445 212.102 205.159 212.102 206.038Z" fill="#2E353A"/>
<path d="M162.724 57.9766H104.086C102.261 57.9766 100.781 59.4563 100.781 61.2816V84.2023C100.781 86.0276 102.261 87.5073 104.086 87.5073H162.724C164.549 87.5073 166.029 86.0276 166.029 84.2023V61.2816C166.029 59.4563 164.549 57.9766 162.724 57.9766Z" fill="#42C8A7"/>
<path d="M100.781 82.3164V92.9755L106.727 86.1307" fill="#42C8A7"/>
<path d="M162.731 57.9766H104.074C103.64 57.9766 103.21 58.0621 102.809 58.2282C102.409 58.3944 102.045 58.6379 101.738 58.9449C101.432 59.2519 101.189 59.6162 101.023 60.0172C100.858 60.4182 100.773 60.8478 100.773 61.2816V92.9742L105.526 87.5073H162.731C163.164 87.5073 163.594 87.4218 163.995 87.2557C164.395 87.0895 164.759 86.846 165.066 86.539C165.372 86.2321 165.615 85.8677 165.781 85.4667C165.947 85.0658 166.031 84.6361 166.031 84.2023V61.2816C166.031 60.8478 165.947 60.4182 165.781 60.0172C165.615 59.6162 165.372 59.2519 165.066 58.9449C164.759 58.6379 164.395 58.3944 163.995 58.2282C163.594 58.0621 163.164 57.9766 162.731 57.9766Z" fill="#42C8A7"/>
<path opacity="0.1" d="M162.731 57.9766H104.074C103.64 57.9766 103.21 58.0621 102.809 58.2282C102.409 58.3944 102.045 58.6379 101.738 58.9449C101.432 59.2519 101.189 59.6162 101.023 60.0172C100.858 60.4182 100.773 60.8478 100.773 61.2816V92.9742L105.526 87.5073H162.731C163.164 87.5073 163.594 87.4218 163.995 87.2557C164.395 87.0895 164.759 86.846 165.066 86.539C165.372 86.2321 165.615 85.8677 165.781 85.4667C165.947 85.0658 166.031 84.6361 166.031 84.2023V61.2816C166.031 60.8478 165.947 60.4182 165.781 60.0172C165.615 59.6162 165.372 59.2519 165.066 58.9449C164.759 58.6379 164.395 58.3944 163.995 58.2282C163.594 58.0621 163.164 57.9766 162.731 57.9766Z" fill="#42C8A7"/>
<path d="M151.005 74.1757H108.874C108.561 74.1757 108.261 74.0516 108.04 73.8306C107.819 73.6096 107.695 73.3099 107.695 72.9975C107.697 72.6858 107.821 72.3874 108.042 72.1675C108.263 71.9477 108.562 71.8242 108.874 71.8242H151.005C151.317 71.8242 151.616 71.9477 151.837 72.1675C152.058 72.3874 152.182 72.6858 152.184 72.9975C152.184 73.1522 152.153 73.3054 152.094 73.4484C152.035 73.5913 151.948 73.7212 151.839 73.8306C151.729 73.94 151.599 74.0268 151.456 74.086C151.313 74.1452 151.16 74.1757 151.005 74.1757Z" fill="white"/>
<path d="M151.005 79.5898H108.874C108.719 79.5898 108.566 79.5593 108.423 79.5001C108.28 79.4409 108.15 79.3541 108.04 79.2447C107.931 79.1353 107.844 79.0054 107.785 78.8624C107.726 78.7195 107.695 78.5662 107.695 78.4115C107.697 78.0999 107.821 77.8015 108.042 77.5816C108.263 77.3617 108.562 77.2383 108.874 77.2383H151.005C151.317 77.2383 151.616 77.3617 151.837 77.5816C152.058 77.8015 152.182 78.0999 152.184 78.4115C152.184 78.5662 152.153 78.7195 152.094 78.8624C152.035 79.0054 151.948 79.1353 151.839 79.2447C151.729 79.3541 151.599 79.4409 151.456 79.5001C151.313 79.5593 151.16 79.5898 151.005 79.5898Z" fill="white"/>
<path d="M111.226 68.7642C113.564 68.7642 115.46 66.8687 115.46 64.5305C115.46 62.1924 113.564 60.2969 111.226 60.2969C108.888 60.2969 106.992 62.1924 106.992 64.5305C106.992 66.8687 108.888 68.7642 111.226 68.7642Z" fill="white"/>
<path d="M162.724 97.9414H104.086C102.261 97.9414 100.781 99.4211 100.781 101.246V124.167C100.781 125.992 102.261 127.472 104.086 127.472H162.724C164.549 127.472 166.029 125.992 166.029 124.167V101.246C166.029 99.4211 164.549 97.9414 162.724 97.9414Z" fill="#42C8A7"/>
<path d="M100.781 122.273V132.937L106.727 126.088" fill="#42C8A7"/>
<path d="M162.731 97.9414H104.073C103.198 97.9414 102.359 98.2891 101.74 98.908C101.121 99.5269 100.773 100.366 100.773 101.241V132.939L105.526 127.447H162.731C163.606 127.447 164.445 127.1 165.064 126.481C165.683 125.862 166.031 125.022 166.031 124.147V101.241C166.031 100.366 165.683 99.5269 165.064 98.908C164.445 98.2891 163.606 97.9414 162.731 97.9414Z" fill="#42C8A7"/>
<path opacity="0.1" d="M162.731 97.9414H104.073C103.198 97.9414 102.359 98.2891 101.74 98.908C101.121 99.5269 100.773 100.366 100.773 101.241V132.939L105.526 127.447H162.731C163.606 127.447 164.445 127.1 165.064 126.481C165.683 125.862 166.031 125.022 166.031 124.147V101.241C166.031 100.366 165.683 99.5269 165.064 98.908C164.445 98.2891 163.606 97.9414 162.731 97.9414Z" fill="#42C8A7"/>
<path d="M151.005 114.137H108.874C108.562 114.137 108.263 114.013 108.042 113.793C107.821 113.573 107.697 113.275 107.695 112.963C107.695 112.651 107.819 112.351 108.04 112.13C108.261 111.909 108.561 111.785 108.874 111.785H151.005C151.16 111.785 151.313 111.816 151.456 111.875C151.599 111.934 151.729 112.021 151.839 112.13C151.948 112.24 152.035 112.37 152.094 112.512C152.153 112.655 152.184 112.809 152.184 112.963C152.182 113.275 152.058 113.573 151.837 113.793C151.616 114.013 151.317 114.137 151.005 114.137Z" fill="white"/>
<path d="M151.005 119.551H108.874C108.562 119.551 108.263 119.427 108.042 119.207C107.821 118.987 107.697 118.689 107.695 118.377C107.695 118.065 107.819 117.765 108.04 117.544C108.261 117.323 108.561 117.199 108.874 117.199H151.005C151.16 117.199 151.313 117.23 151.456 117.289C151.599 117.348 151.729 117.435 151.839 117.544C151.948 117.654 152.035 117.784 152.094 117.927C152.153 118.07 152.184 118.223 152.184 118.377C152.182 118.689 152.058 118.987 151.837 119.207C151.616 119.427 151.317 119.551 151.005 119.551Z" fill="white"/>
<path d="M111.226 108.725C113.564 108.725 115.46 106.83 115.46 104.491C115.46 102.153 113.564 100.258 111.226 100.258C108.888 100.258 106.992 102.153 106.992 104.491C106.992 106.83 108.888 108.725 111.226 108.725Z" fill="white"/>
<path d="M55.4694 156.454C55.4245 156.454 55.2248 153.324 55.2347 153.124C55.3496 150.813 56.9372 146.409 59.4484 145.74C59.8676 145.64 60.3032 145.629 60.7269 145.709C61.1505 145.788 61.5525 145.956 61.9068 146.202C62.2611 146.447 62.5596 146.765 62.783 147.133C63.0063 147.502 63.1493 147.914 63.2028 148.341C63.4924 150.149 62.3141 152.076 61.1209 153.334C59.713 154.792 55.4694 156.454 55.4694 156.454Z" fill="#2E353A"/>
<path d="M52.1925 144.39C52.1475 144.39 52.4221 141.265 52.462 141.065C52.9313 138.798 55.168 134.684 57.7441 134.405C58.1738 134.37 58.606 134.425 59.0128 134.568C59.4195 134.711 59.7915 134.938 60.1047 135.234C60.4179 135.531 60.6652 135.889 60.8305 136.288C60.9958 136.686 61.0754 137.114 61.0642 137.545C61.0642 139.377 59.6213 141.105 58.2534 142.158C56.6408 143.396 52.1925 144.39 52.1925 144.39Z" fill="#2E353A"/>
<path d="M51.3642 130.155C51.3193 130.155 51.5989 127.03 51.6388 126.83C52.1031 124.564 54.3398 120.45 56.9209 120.17C57.3504 120.135 57.7824 120.191 58.1888 120.334C58.5953 120.477 58.9671 120.704 59.2799 121C59.5927 121.296 59.8395 121.655 60.0042 122.054C60.169 122.452 60.2479 122.88 60.236 123.311C60.236 125.143 58.7981 126.865 57.4252 127.924C55.8126 129.162 51.3692 130.155 51.3642 130.155Z" fill="#2E353A"/>
<path d="M49.9346 116.762C49.8896 116.762 50.1692 113.631 50.2092 113.437C50.6735 111.165 52.9101 107.056 55.4912 106.772C55.9209 106.737 56.3531 106.793 56.7595 106.937C57.166 107.081 57.5377 107.308 57.8504 107.605C58.1631 107.901 58.4098 108.261 58.5745 108.659C58.7392 109.057 58.8182 109.486 58.8063 109.917C58.8063 111.744 57.3684 113.472 55.9955 114.525C54.3829 115.763 49.9396 116.762 49.9346 116.762Z" fill="#2E353A"/>
<path d="M45.6591 106.015C45.6191 106.015 45.06 102.934 45.045 102.735C44.8952 100.423 45.9686 95.8649 48.38 94.9163C48.7849 94.7685 49.2164 94.7078 49.6464 94.738C50.0763 94.7683 50.4951 94.8889 50.8753 95.0919C51.2555 95.295 51.5886 95.576 51.8529 95.9165C52.1171 96.257 52.3066 96.6494 52.409 97.0681C52.9082 98.8305 51.9596 100.877 50.9112 102.255C49.693 103.878 45.6591 106.015 45.6591 106.015Z" fill="#2E353A"/>
<path d="M54.1492 156.486C54.1991 156.486 52.8362 153.636 52.7263 153.466C51.4932 151.509 47.9535 148.443 45.4422 149.087C45.0282 149.206 44.6437 149.41 44.3139 149.686C43.984 149.963 43.7162 150.306 43.5278 150.694C43.3394 151.081 43.2346 151.503 43.2204 151.934C43.2062 152.364 43.2828 152.792 43.4452 153.191C44.0743 154.914 46.0413 156.017 47.6988 156.521C49.6559 157.115 54.1492 156.486 54.1492 156.486Z" fill="#2E353A"/>
<path d="M51.5265 142.778C51.5764 142.778 49.7941 140.162 49.6643 140.012C48.1665 138.259 44.1725 135.768 41.801 136.782C41.4086 136.961 41.0584 137.22 40.7732 137.544C40.4881 137.868 40.2745 138.248 40.1463 138.66C40.0181 139.071 39.9783 139.506 40.0294 139.934C40.0806 140.362 40.2215 140.775 40.4431 141.145C41.3218 142.748 43.4386 143.541 45.151 143.791C47.158 144.081 51.5265 142.778 51.5265 142.778Z" fill="#2E353A"/>
<path d="M50.7716 129.349C50.8166 129.349 49.0392 126.733 48.9094 126.583C47.4117 124.831 43.4176 122.339 41.0412 123.358C40.6445 123.536 40.2902 123.796 40.0015 124.121C39.7128 124.446 39.4964 124.828 39.3666 125.243C39.2368 125.658 39.1966 126.095 39.2486 126.527C39.3006 126.959 39.4436 127.374 39.6682 127.746C40.5519 129.349 42.6638 130.143 44.3812 130.387C46.4032 130.657 50.7716 129.354 50.7716 129.349Z" fill="#2E353A"/>
<path d="M49.4796 117.028C49.5295 117.028 47.7472 114.412 47.6174 114.262C46.1196 112.509 42.1256 110.018 39.7542 111.032C39.3617 111.211 39.0115 111.47 38.7264 111.794C38.4412 112.118 38.2276 112.498 38.0994 112.91C37.9712 113.321 37.9314 113.756 37.9826 114.184C38.0337 114.612 38.1747 115.025 38.3962 115.395C39.2749 117.003 41.3917 117.791 43.1042 118.041C45.1111 118.331 49.4796 117.028 49.4796 117.028Z" fill="#2E353A"/>
<path d="M45.6938 106.42C45.7387 106.42 43.6968 104.013 43.537 103.873C41.8396 102.301 37.6259 100.259 35.3643 101.532C34.9929 101.753 34.6726 102.05 34.4242 102.404C34.1758 102.758 34.0049 103.16 33.9229 103.584C33.8409 104.008 33.8495 104.445 33.9482 104.866C34.0469 105.287 34.2334 105.682 34.4956 106.025C35.549 107.523 37.7357 108.082 39.4881 108.137C41.4951 108.197 45.6938 106.425 45.6938 106.42Z" fill="#2E353A"/>
<path d="M40.2442 97.6497C40.2891 97.6497 39.5702 94.5843 39.5053 94.3945C38.7215 92.2128 35.9257 88.4634 33.3295 88.5483C32.8992 88.5744 32.4793 88.6909 32.097 88.8901C31.7147 89.0893 31.3786 89.3667 31.1106 89.7044C30.8427 90.0421 30.6488 90.4324 30.5416 90.85C30.4345 91.2675 30.4165 91.703 30.4888 92.1279C30.7384 93.9452 32.4209 95.443 33.9286 96.2917C35.701 97.2902 40.2392 97.6497 40.2442 97.6497Z" fill="#2E353A"/>
<path d="M59.8337 172.629C59.8337 172.629 59.2995 171.406 58.4607 169.264C57.622 167.123 56.4637 164.032 55.2356 160.278C54.6215 158.401 53.9974 156.354 53.3883 154.172C53.0788 153.074 52.7992 151.97 52.4947 150.787C52.3649 150.208 52.2401 149.624 52.1102 149.035C51.9804 148.446 51.8906 147.822 51.7807 147.207C51.3867 144.689 51.1317 142.15 51.0169 139.604C50.8921 137.013 50.8421 134.392 50.7772 131.771C50.7123 129.149 50.6474 126.538 50.4378 123.982C50.2549 121.479 49.8962 118.991 49.3644 116.538C48.8287 114.254 48.0902 112.022 47.1577 109.868C46.3249 107.931 45.3797 106.044 44.3269 104.217C43.3633 102.504 42.3748 101.002 41.4911 99.6736C40.6075 98.3456 39.7787 97.2272 39.0847 96.3136C37.6968 94.4863 36.8281 93.5078 36.8281 93.5078C36.8281 93.5078 37.7168 94.4714 39.1497 96.2637C39.8586 97.1673 40.7073 98.2607 41.6459 99.5787C42.5845 100.897 43.583 102.375 44.5865 104.072C45.693 105.888 46.6932 107.767 47.582 109.699C48.5779 111.857 49.3814 114.099 49.9834 116.399C50.576 118.862 50.9947 121.365 51.2366 123.887C51.5012 126.468 51.636 129.095 51.7358 131.716C51.8357 134.337 51.9605 136.948 52.1402 139.509C52.3084 142.006 52.6118 144.493 53.0488 146.958C53.1737 147.552 53.2485 148.131 53.4033 148.72C53.5581 149.309 53.6879 149.888 53.8277 150.463C54.1372 151.556 54.4517 152.694 54.7812 153.758C55.4253 155.899 56.0893 157.911 56.7383 159.749C58.0264 163.443 59.2346 166.469 60.1183 168.575C61.0019 170.682 61.5461 171.851 61.5461 171.851C61.6284 172.066 61.6259 172.305 61.539 172.52C61.4521 172.734 61.2873 172.907 61.0778 173.004C60.8683 173.102 60.6297 173.116 60.41 173.045C60.1902 172.973 60.0057 172.821 59.8936 172.619L59.8337 172.629Z" fill="#2E353A"/>
<path d="M71.5958 153.279C71.5509 153.279 72.2548 150.209 72.3197 150.019C73.0886 147.837 75.8644 144.068 78.4555 144.138C78.8858 144.161 79.3065 144.274 79.6899 144.471C80.0734 144.667 80.4112 144.943 80.6811 145.278C80.951 145.614 81.1471 146.003 81.2566 146.42C81.366 146.837 81.3864 147.272 81.3163 147.697C81.0816 149.515 79.4091 151.027 77.9064 151.886C76.119 152.895 71.6258 153.279 71.5958 153.279Z" fill="#2E353A"/>
<path d="M71.8841 140.788C71.8392 140.788 72.9974 137.853 73.0923 137.678C74.1856 135.631 77.4957 132.326 80.0469 132.79C80.4688 132.879 80.8675 133.055 81.2169 133.307C81.5663 133.56 81.8586 133.883 82.0748 134.256C82.291 134.629 82.4262 135.043 82.4716 135.472C82.517 135.901 82.4716 136.334 82.3384 136.744C81.8392 138.507 79.947 139.74 78.3444 140.364C76.4323 141.093 71.8891 140.788 71.8841 140.788Z" fill="#2E353A"/>
<path d="M75.1188 126.901C75.0688 126.901 76.2271 123.965 76.322 123.79C77.4153 121.748 80.7304 118.443 83.2815 118.903C83.7037 118.991 84.1023 119.168 84.4516 119.421C84.8009 119.674 85.0929 119.998 85.3086 120.372C85.5243 120.745 85.659 121.16 85.7037 121.589C85.7484 122.018 85.7022 122.452 85.5681 122.862C85.0689 124.619 83.1767 125.857 81.5741 126.481C79.6869 127.21 75.1188 126.901 75.1188 126.901Z" fill="#2E353A"/>
<path d="M77.5719 113.658C77.522 113.658 78.6802 110.728 78.7751 110.548C79.8684 108.506 83.1835 105.201 85.7347 105.665C86.1566 105.753 86.5552 105.93 86.9044 106.182C87.2537 106.435 87.5457 106.758 87.7615 107.131C87.9773 107.504 88.112 107.919 88.1567 108.348C88.2015 108.776 88.1553 109.21 88.0212 109.619C87.522 111.382 85.6298 112.615 84.0272 113.239C82.1101 113.968 77.5719 113.658 77.5719 113.658Z" fill="#2E353A"/>
<path d="M76.5362 102.129C76.4863 102.129 76.8307 99.0082 76.8757 98.8135C77.3749 96.5519 79.7114 92.4879 82.2976 92.2633C82.7277 92.2376 83.1584 92.3027 83.5617 92.4544C83.965 92.6061 84.3318 92.841 84.6384 93.1437C84.9449 93.4465 85.1843 93.8104 85.341 94.2118C85.4976 94.6132 85.5681 95.0431 85.5477 95.4735C85.5477 97.3057 84.0499 98.9982 82.642 100.022C81.0045 101.225 76.5362 102.129 76.5362 102.129Z" fill="#2E353A"/>
<path d="M70.3329 152.938C70.3778 152.938 69.8786 149.833 69.8336 149.643C69.2096 147.411 66.6883 143.467 64.0972 143.367C63.6658 143.363 63.2383 143.449 62.8424 143.62C62.4465 143.791 62.0912 144.044 61.7997 144.362C61.5081 144.68 61.2868 145.056 61.1502 145.465C61.0136 145.875 60.9647 146.308 61.0069 146.737C61.1217 148.565 62.6943 150.182 64.1372 151.136C65.8246 152.259 70.3279 152.938 70.3329 152.938Z" fill="#2E353A"/>
<path d="M71.7056 139.05C71.7555 139.05 70.7869 136.055 70.7071 135.865C69.7485 133.753 66.6581 130.238 64.082 130.533C63.6551 130.594 63.2458 130.744 62.8808 130.974C62.5158 131.203 62.2033 131.507 61.9636 131.866C61.7238 132.224 61.5623 132.629 61.4894 133.054C61.4166 133.479 61.4341 133.915 61.5408 134.332C61.9302 136.12 63.7325 137.483 65.3002 138.207C67.1324 139.06 71.7006 139.05 71.7056 139.05Z" fill="#2E353A"/>
<path d="M74.7938 125.959C74.8387 125.959 73.8752 122.964 73.7953 122.774C72.8417 120.667 69.7514 117.153 67.1752 117.447C66.7468 117.507 66.3359 117.657 65.9695 117.887C65.6031 118.117 65.2894 118.422 65.049 118.781C64.8086 119.141 64.6469 119.548 64.5745 119.974C64.5021 120.401 64.5207 120.838 64.629 121.256C65.0234 123.049 66.8207 124.407 68.3934 125.131C70.2356 125.969 74.7888 125.959 74.7938 125.959Z" fill="#2E353A"/>
<path d="M77.0571 113.768C77.107 113.768 76.1385 110.773 76.0586 110.583C75.1 108.476 72.0147 104.957 69.4335 105.256C69.0068 105.317 68.5977 105.466 68.2327 105.695C67.8677 105.924 67.5551 106.228 67.3153 106.586C67.0755 106.944 66.9139 107.348 66.841 107.773C66.7682 108.198 66.7856 108.633 66.8923 109.051C67.2818 110.843 69.0841 112.201 70.6567 112.925C72.4989 113.768 77.0571 113.768 77.0571 113.768Z" fill="#2E353A"/>
<path d="M76.4423 102.529C76.4922 102.529 75.2041 99.6488 75.0993 99.474C73.9161 97.477 70.4612 94.3267 67.93 94.9059C67.5123 95.0128 67.1219 95.2067 66.7842 95.4748C66.4465 95.7429 66.1692 96.0793 65.9704 96.4619C65.7716 96.8445 65.6557 97.2647 65.6303 97.6951C65.6049 98.1256 65.6707 98.5565 65.8232 98.9598C66.4073 100.692 68.3444 101.845 69.987 102.395C71.9141 103.039 76.4423 102.529 76.4423 102.529Z" fill="#2E353A"/>
<path d="M73.7153 92.5735C73.7552 92.5735 73.9399 89.4432 73.9249 89.2435C73.7951 86.927 72.1826 82.5335 69.6713 81.8795C69.2513 81.7825 68.8157 81.7751 68.3926 81.8576C67.9696 81.9401 67.5686 82.1108 67.2159 82.3585C66.8632 82.6062 66.5665 82.9254 66.3453 83.2953C66.1241 83.6653 65.9832 84.0776 65.9319 84.5056C65.6523 86.3179 66.8406 88.235 68.0438 89.4981C69.4566 90.936 73.7103 92.5685 73.7153 92.5735Z" fill="#2E353A"/>
<path d="M71.1812 170.027C71.1812 170.027 71.0114 168.704 70.8167 166.408C70.622 164.111 70.3874 160.826 70.2825 156.877C70.2276 154.88 70.2076 152.763 70.2476 150.497C70.2476 149.358 70.3075 148.22 70.3524 147.002C70.3924 146.413 70.4373 145.814 70.4772 145.214C70.5172 144.615 70.617 143.986 70.6819 143.367C71.0242 140.847 71.5025 138.347 72.1148 135.878C72.7289 133.357 73.4278 130.826 74.1118 128.3C74.7958 125.774 75.4698 123.247 75.999 120.731C76.5349 118.28 76.8969 115.794 77.0823 113.292C77.2108 110.948 77.1306 108.597 76.8427 106.268C76.5961 104.173 76.226 102.094 75.7344 100.042C75.295 98.1249 74.7808 96.4025 74.3115 94.8798C73.8422 93.3571 73.3579 92.044 72.9585 90.9756C72.1447 88.8288 71.5906 87.6406 71.5906 87.6406C71.5906 87.6406 72.1697 88.8189 73.0284 90.9457C73.4578 92.0091 73.952 93.3121 74.4712 94.8249C74.9905 96.3376 75.5297 98.06 76.0089 99.9722C76.548 102.026 76.9664 104.11 77.2621 106.213C77.6057 108.566 77.7393 110.945 77.6615 113.322C77.5281 115.861 77.2161 118.386 76.7279 120.881C76.2286 123.427 75.6295 125.983 74.9955 128.529C74.3614 131.076 73.7224 133.612 73.1682 136.118C72.6178 138.56 72.2012 141.03 71.9201 143.517C71.8701 144.121 71.7803 144.695 71.7603 145.304C71.7403 145.913 71.7004 146.507 71.6704 147.097C71.6704 148.235 71.6355 149.413 71.6704 150.526C71.6704 152.768 71.7453 154.885 71.8452 156.837C72.0299 160.746 72.3444 163.996 72.5791 166.258C72.8137 168.52 73.0134 169.808 73.0134 169.808C73.0308 169.926 73.0247 170.047 72.9955 170.163C72.9662 170.279 72.9144 170.388 72.843 170.484C72.7716 170.58 72.6821 170.66 72.5794 170.722C72.4767 170.783 72.3629 170.824 72.2446 170.841C72.1262 170.858 72.0056 170.852 71.8896 170.823C71.7737 170.794 71.6646 170.742 71.5686 170.671C71.4727 170.599 71.3917 170.51 71.3304 170.407C71.269 170.304 71.2285 170.191 71.2111 170.072V170.047L71.1812 170.027Z" fill="#2E353A"/>
<path d="M76.9751 203.04H55.8367L49.8906 168.422H82.9212L76.9751 203.04Z" fill="#2E353A"/>
<path d="M114.201 206.315C139.587 206.315 160.167 185.735 160.167 160.349C160.167 134.963 139.587 114.383 114.201 114.383C88.8141 114.383 68.2344 134.963 68.2344 160.349C68.2344 185.735 88.8141 206.315 114.201 206.315Z" fill="#42C8A7"/>
<path d="M114.204 206.544C105.067 206.544 96.1355 203.835 88.5386 198.759C80.9418 193.683 75.0207 186.468 71.5243 178.027C68.0278 169.585 67.113 160.297 68.8955 151.336C70.678 142.375 75.0777 134.143 81.5383 127.683C87.9989 121.222 96.2302 116.822 105.191 115.04C114.152 113.258 123.441 114.172 131.882 117.669C140.323 121.165 147.538 127.086 152.614 134.683C157.69 142.28 160.4 151.212 160.4 160.348C160.385 172.596 155.513 184.337 146.853 192.998C138.193 201.658 126.451 206.53 114.204 206.544ZM114.204 114.607C105.157 114.607 96.3132 117.289 88.791 122.316C81.2689 127.342 75.4061 134.486 71.944 142.844C68.482 151.202 67.5761 160.399 69.3411 169.272C71.106 178.145 75.4625 186.295 81.8595 192.692C88.2566 199.089 96.407 203.446 105.28 205.211C114.153 206.976 123.35 206.07 131.708 202.608C140.066 199.146 147.21 193.283 152.236 185.761C157.262 178.239 159.945 169.395 159.945 160.348C159.933 148.22 155.11 136.593 146.535 128.017C137.959 119.442 126.331 114.619 114.204 114.607Z" fill="#2E353A"/>
<path d="M102.03 190.577C98.1413 189.142 94.5773 186.948 91.5455 184.121C88.4871 181.181 86.1172 177.601 84.6059 173.637C82.8922 169.192 82.0432 164.461 82.1047 159.698C82.0719 155.631 82.7895 151.593 84.2215 147.786C85.5161 144.294 87.4553 141.076 89.938 138.3C94.8441 132.92 101.189 129.059 108.221 127.172C111.671 126.246 115.227 125.776 118.8 125.774C121.764 125.763 124.718 126.115 127.597 126.822C130.378 127.511 133.041 128.613 135.495 130.092C137.92 131.552 140.093 133.395 141.93 135.549C143.852 137.864 145.318 140.522 146.249 143.382C147.327 146.639 147.858 150.052 147.821 153.482C147.784 160.082 145.42 166.457 141.146 171.485C139.299 173.595 137.104 175.373 134.656 176.742C132.55 177.964 130.166 178.627 127.731 178.669C126.06 178.69 124.428 178.164 123.083 177.172C122.404 176.673 121.852 176.022 121.469 175.271C121.087 174.521 120.886 173.691 120.882 172.848C118.033 176.862 114.178 178.869 109.319 178.869C105.362 178.869 102.2 177.516 99.8331 174.81C97.4667 172.104 96.2884 168.776 96.2984 164.825C96.3092 161.82 96.8326 158.838 97.8461 156.008C98.8378 153.148 100.259 150.454 102.06 148.02C103.848 145.62 106.131 143.633 108.755 142.194C111.371 140.716 114.327 139.942 117.332 139.947C119.42 139.926 121.48 140.429 123.323 141.41C125.119 142.363 126.575 143.849 127.492 145.664L127.881 144.396C128.059 143.863 128.361 143.38 128.761 142.986C129.161 142.592 129.649 142.298 130.184 142.128C130.719 141.958 131.287 141.917 131.841 142.009C132.396 142.1 132.92 142.321 133.373 142.653C133.662 142.889 133.891 143.19 134.042 143.531C134.193 143.871 134.261 144.243 134.242 144.615C134.242 144.972 134.183 145.327 134.067 145.664L127.871 166.258C127.172 168.615 126.823 170.23 126.823 171.106C126.823 172.59 127.58 173.331 129.094 173.327C131.071 173.327 133.013 172.419 134.921 170.602C136.975 168.551 138.561 166.08 139.569 163.357C140.755 160.379 141.361 157.202 141.356 153.996C141.385 151.172 140.972 148.361 140.133 145.664C139.437 143.338 138.325 141.158 136.853 139.229C135.455 137.47 133.766 135.964 131.86 134.775C129.957 133.577 127.881 132.679 125.704 132.114C123.474 131.533 121.179 131.239 118.875 131.24C115.945 131.244 113.029 131.656 110.213 132.464C107.321 133.291 104.565 134.534 102.03 136.153C99.4736 137.767 97.159 139.736 95.1551 141.999C93.0884 144.383 91.4773 147.126 90.4023 150.092C89.2067 153.326 88.6079 156.75 88.6349 160.197C88.5701 164.281 89.3114 168.337 90.8166 172.134C92.1014 175.427 94.1415 178.372 96.7727 180.731C99.3093 182.939 102.24 184.648 105.41 185.769C108.752 186.952 112.274 187.543 115.819 187.516C119.609 187.523 123.377 186.949 126.992 185.814C127.357 185.691 127.741 185.631 128.126 185.639C128.492 185.624 128.857 185.689 129.195 185.828C129.534 185.968 129.839 186.179 130.088 186.448C130.567 186.945 130.833 187.61 130.832 188.3C130.879 188.856 130.724 189.409 130.394 189.859C130.065 190.309 129.583 190.624 129.039 190.746C124.527 192.127 119.839 192.847 115.12 192.883C110.653 192.917 106.217 192.135 102.03 190.577ZM117.806 170.766C119.689 169.408 121.088 167.484 121.8 165.275L125.794 151.226L125.53 150.656C125.276 150.193 124.969 149.761 124.616 149.368C124.139 148.82 123.619 148.309 123.063 147.841C122.349 147.265 121.537 146.822 120.667 146.533C118.407 145.733 115.927 145.818 113.727 146.772C112.531 147.288 111.432 148.004 110.477 148.889C109.481 149.817 108.594 150.858 107.836 151.989C107.045 153.161 106.375 154.411 105.839 155.719C105.302 157.022 104.886 158.373 104.596 159.753C104.31 161.065 104.163 162.404 104.157 163.747C104.151 164.608 104.203 165.469 104.311 166.323C104.404 167.08 104.571 167.826 104.811 168.55C105.022 169.205 105.323 169.828 105.704 170.402C106.057 170.933 106.499 171.397 107.012 171.775C107.558 172.174 108.172 172.47 108.825 172.649C109.592 172.862 110.385 172.964 111.181 172.953C113.571 172.979 115.901 172.21 117.806 170.766Z" fill="#2E353A"/>
<path d="M176.717 121.691C176.717 121.691 175.22 124.477 175 124.867C174.78 125.256 173.976 127.363 174.216 127.862C174.456 128.361 174.685 128.646 175.16 128.726C175.634 128.806 176.023 129.669 176.807 129.824C177.301 129.922 177.802 129.975 178.305 129.984C178.428 130.075 178.571 130.136 178.721 130.163C178.872 130.189 179.027 130.181 179.174 130.139C179.643 129.984 180.037 129.749 180.352 128.411C180.544 127.749 180.597 127.053 180.507 126.369L180.367 123.668L176.717 121.691Z" fill="white"/>
<path d="M178.894 130.428C178.657 130.425 178.425 130.356 178.225 130.229C177.732 130.215 177.241 130.16 176.757 130.064C176.309 129.942 175.907 129.688 175.604 129.335C175.469 129.174 175.298 129.047 175.105 128.966C174.848 128.908 174.61 128.787 174.414 128.612C174.217 128.437 174.068 128.215 173.981 127.967C173.657 127.323 174.601 125.032 174.775 124.742C175.005 124.358 176.473 121.602 176.488 121.572C176.52 121.514 176.574 121.471 176.637 121.452C176.698 121.427 176.766 121.427 176.827 121.452L180.472 123.424C180.509 123.445 180.54 123.476 180.563 123.512C180.586 123.549 180.599 123.591 180.602 123.634L180.741 126.33C180.833 127.037 180.777 127.756 180.577 128.441C180.267 129.774 179.863 130.144 179.234 130.354C179.125 130.396 179.01 130.422 178.894 130.428ZM176.822 122.031C176.463 122.7 175.414 124.662 175.215 124.997C174.94 125.451 174.281 127.433 174.436 127.743C174.685 128.242 174.875 128.421 175.2 128.476C175.495 128.564 175.758 128.738 175.954 128.976C176.189 129.26 176.504 129.468 176.857 129.575C177.333 129.667 177.816 129.719 178.3 129.73C178.358 129.73 178.414 129.749 178.46 129.784C178.549 129.849 178.652 129.894 178.761 129.913C178.87 129.933 178.982 129.928 179.089 129.899C179.433 129.784 179.793 129.665 180.087 128.352C180.269 127.723 180.321 127.064 180.242 126.414L180.107 123.818L176.822 122.031Z" fill="#2E353A"/>
<path d="M185.374 196.703C185.374 196.703 183.242 200.173 183.242 201.012C183.242 201.85 186.178 203.393 187.436 203.952C188.694 204.511 190.931 204.951 192.748 205.21C194.565 205.47 198.34 206.209 197.241 204.791C196.143 203.373 189.393 199.639 189.113 199.194C188.767 198.779 188.379 198.401 187.955 198.066L185.374 196.703Z" fill="white"/>
<path d="M196.332 205.882C195.267 205.838 194.206 205.72 193.157 205.527L192.708 205.457C190.171 205.068 188.364 204.638 187.336 204.179C187.156 204.099 182.992 202.237 182.992 201.014C182.992 200.13 184.939 196.935 185.159 196.57C185.193 196.517 185.246 196.479 185.306 196.462C185.367 196.445 185.432 196.452 185.488 196.481L188.07 197.849C188.533 198.203 188.953 198.61 189.323 199.062C189.443 199.202 190.541 199.89 191.604 200.559C193.871 201.972 196.687 203.735 197.416 204.643C197.68 204.973 197.745 205.257 197.605 205.492C197.466 205.727 197.026 205.882 196.332 205.882ZM185.449 197.035C184.64 198.373 183.476 200.485 183.476 201.029C183.476 201.573 185.613 202.891 187.52 203.74C188.519 204.179 190.276 204.593 192.773 204.978L193.217 205.048C194.136 205.193 196.931 205.637 197.161 205.247C197.161 205.247 197.161 205.148 197.011 204.963C196.337 204.119 193.442 202.307 191.325 200.969C189.622 199.905 189.013 199.516 188.888 199.331C188.557 198.936 188.186 198.576 187.78 198.258L185.449 197.035Z" fill="#2E353A"/>
<path d="M188.711 202.168L189.46 203.287C190.265 204.509 191.359 205.513 192.645 206.212C194.642 207.291 197.717 208.524 200.403 207.785C204.807 206.572 193.723 199.887 193.723 199.887C193.723 199.887 189.774 202.633 188.711 202.168Z" fill="white"/>
<path d="M198.656 208.261C196.439 208.261 194.163 207.332 192.525 206.434C191.205 205.717 190.081 204.689 189.25 203.438L188.501 202.315C188.47 202.272 188.453 202.221 188.453 202.168C188.453 202.115 188.47 202.063 188.501 202.02C188.536 201.979 188.584 201.949 188.637 201.937C188.69 201.924 188.746 201.929 188.796 201.95C189.44 202.23 191.971 200.797 193.564 199.694C193.603 199.667 193.65 199.652 193.698 199.652C193.746 199.652 193.793 199.667 193.833 199.694C194.667 200.193 201.976 204.686 201.662 206.963C201.592 207.462 201.162 207.842 200.453 208.041C199.867 208.195 199.262 208.269 198.656 208.261ZM189.2 202.45L189.664 203.154C190.45 204.339 191.512 205.314 192.76 205.994C194.797 207.093 197.752 208.256 200.338 207.547C201.117 207.327 201.167 206.988 201.182 206.878C201.407 205.246 196.005 201.576 193.728 200.188C192.935 200.717 190.548 202.29 189.2 202.45Z" fill="#2E353A"/>
<path d="M189.977 202.699C191.19 204.534 193.028 205.866 195.149 206.449C198.768 207.482 199.807 207.222 200.581 206.189" fill="white"/>
<path d="M198.611 207.359C197.414 207.292 196.23 207.067 195.091 206.69C192.903 206.099 191.009 204.724 189.769 202.826C189.753 202.798 189.741 202.767 189.737 202.734C189.732 202.702 189.734 202.669 189.743 202.637C189.751 202.606 189.766 202.576 189.786 202.55C189.806 202.524 189.831 202.503 189.859 202.487C189.917 202.454 189.985 202.445 190.05 202.461C190.114 202.478 190.169 202.52 190.204 202.577C191.391 204.349 193.172 205.638 195.226 206.211C198.756 207.21 199.72 206.96 200.389 206.041C200.429 205.989 200.488 205.955 200.553 205.946C200.618 205.937 200.685 205.953 200.738 205.991C200.791 206.031 200.826 206.09 200.835 206.156C200.845 206.221 200.828 206.288 200.788 206.341C200.543 206.684 200.215 206.957 199.833 207.136C199.452 207.314 199.031 207.391 198.611 207.359Z" fill="#2E353A"/>
<path d="M183.516 200.371C183.516 200.371 187.51 203.232 189.462 203.287L183.516 200.371Z" fill="white"/>
<path d="M189.44 203.537C187.443 203.482 183.524 200.691 183.359 200.577C183.306 200.537 183.271 200.478 183.261 200.413C183.251 200.348 183.266 200.281 183.304 200.227C183.323 200.2 183.346 200.177 183.374 200.16C183.401 200.142 183.432 200.13 183.464 200.125C183.496 200.119 183.529 200.12 183.56 200.127C183.592 200.135 183.622 200.148 183.649 200.167C183.688 200.197 187.608 202.988 189.455 203.038C189.521 203.04 189.584 203.069 189.63 203.118C189.676 203.166 189.701 203.231 189.699 203.297C189.698 203.33 189.69 203.363 189.677 203.392C189.663 203.422 189.643 203.449 189.619 203.471C189.595 203.493 189.567 203.511 189.536 203.522C189.505 203.533 189.473 203.538 189.44 203.537Z" fill="#2E353A"/>
<path d="M174.844 122.648C174.844 122.648 178.388 128.525 179.147 129.888C179.906 131.251 189.472 142.189 193.266 151.605C197.06 161.021 200.71 169.518 200.555 172.254C200.4 174.99 187.944 198.066 187.944 198.066L185.363 196.703C185.363 196.703 189.307 174.985 188.858 172.708C188.408 170.432 174.464 147.806 174.464 147.806C174.464 147.806 167.934 143.253 165.203 137.936" fill="#2E353A"/>
<path d="M175.346 137.332C175.346 137.332 173.374 141.58 173.374 142.189C173.374 142.798 184.458 175.444 187.648 182.883C189.667 187.649 191.44 192.514 192.96 197.462C192.96 197.462 194.178 198.959 193.264 200.497C192.351 202.035 188.711 203.078 187.952 201.71C187.194 200.342 179.75 193.223 176.564 186.074C173.379 178.924 168.821 166.787 166.235 162.234C162.828 156.404 159.787 150.368 157.129 144.161C153.784 136.268 150.344 127.711 150.344 127.711C154.852 128.088 159.391 127.579 163.704 126.213C170.693 123.937 173.689 119.578 173.689 119.578C173.689 119.578 175.466 124.121 175.92 125" fill="#2E353A"/>
<path d="M176.392 150.153C176.357 150.153 176.323 150.142 176.295 150.123C176.267 150.103 176.245 150.076 176.232 150.043L172.737 140.957C172.725 140.923 172.723 140.887 172.732 140.852C172.741 140.817 172.76 140.786 172.787 140.762L176.701 137.407C176.734 137.377 176.778 137.359 176.823 137.359C176.869 137.359 176.912 137.377 176.946 137.407C176.976 137.44 176.993 137.483 176.993 137.527C176.993 137.572 176.976 137.615 176.946 137.647L173.121 140.927L176.571 149.914C176.588 149.956 176.587 150.003 176.569 150.045C176.552 150.087 176.518 150.121 176.476 150.138L176.392 150.153Z" fill="white"/>
<path d="M172.894 141.061C172.851 141.061 172.81 141.045 172.779 141.016C172.762 141 172.748 140.981 172.739 140.959C172.729 140.938 172.724 140.915 172.724 140.891C172.724 140.866 172.724 138.125 171.496 136.398C171.192 135.953 170.947 135.604 170.742 135.319C170.103 134.411 169.909 134.136 169.794 133.682C169.715 133.151 169.715 132.611 169.794 132.079C169.802 132.035 169.827 131.996 169.863 131.969C169.899 131.942 169.944 131.93 169.988 131.935C170.011 131.938 170.032 131.945 170.052 131.957C170.071 131.968 170.088 131.983 170.102 132.001C170.115 132.02 170.125 132.04 170.13 132.062C170.136 132.084 170.137 132.107 170.133 132.129C170.063 132.618 170.063 133.114 170.133 133.602C170.233 133.991 170.403 134.231 171.032 135.125C171.232 135.409 171.481 135.759 171.786 136.203C172.894 137.796 173.049 140.082 173.074 140.736L180.168 140.462C180.213 140.462 180.257 140.478 180.29 140.509C180.324 140.54 180.344 140.581 180.348 140.626C180.349 140.649 180.346 140.671 180.338 140.693C180.331 140.714 180.319 140.733 180.303 140.75C180.288 140.766 180.269 140.779 180.249 140.788C180.228 140.797 180.206 140.801 180.183 140.801L172.914 141.081L172.894 141.061Z" fill="white"/>
<path d="M196.663 173.382C193.502 173.382 189.488 171.335 189.309 171.245C189.269 171.224 189.239 171.188 189.226 171.145C189.213 171.102 189.218 171.055 189.239 171.016C189.249 170.996 189.263 170.978 189.28 170.963C189.297 170.948 189.317 170.937 189.338 170.93C189.359 170.923 189.382 170.921 189.404 170.922C189.427 170.924 189.448 170.93 189.468 170.941C189.513 170.966 194.076 173.292 197.202 173.018C197.224 173.016 197.247 173.018 197.269 173.025C197.291 173.032 197.311 173.043 197.328 173.058C197.345 173.073 197.359 173.091 197.369 173.112C197.379 173.132 197.385 173.155 197.387 173.177C197.389 173.2 197.386 173.222 197.38 173.244C197.373 173.265 197.362 173.285 197.348 173.302C197.333 173.319 197.316 173.333 197.296 173.344C197.276 173.354 197.254 173.36 197.232 173.362C197.047 173.377 196.857 173.382 196.663 173.382Z" fill="white"/>
<path d="M196.239 176.021H196.199C193.398 175.317 190.253 172.741 190.118 172.631C190.087 172.599 190.07 172.556 190.07 172.511C190.07 172.467 190.087 172.424 190.118 172.391C190.132 172.374 190.149 172.359 190.169 172.349C190.189 172.338 190.21 172.331 190.232 172.329C190.255 172.327 190.277 172.329 190.299 172.335C190.32 172.342 190.34 172.352 190.358 172.366C190.387 172.391 193.578 175.007 196.304 175.686C196.325 175.692 196.346 175.702 196.363 175.716C196.381 175.73 196.396 175.747 196.407 175.766C196.418 175.786 196.426 175.807 196.428 175.83C196.431 175.852 196.429 175.875 196.423 175.896C196.414 175.936 196.39 175.971 196.355 175.995C196.321 176.018 196.28 176.027 196.239 176.021Z" fill="white"/>
<path d="M172.752 138.408C172.725 138.408 172.698 138.401 172.674 138.389C172.65 138.377 172.629 138.359 172.612 138.338C172.599 138.319 172.59 138.298 172.585 138.276C172.58 138.254 172.58 138.231 172.584 138.208C172.588 138.186 172.597 138.165 172.61 138.146C172.622 138.127 172.638 138.111 172.657 138.098C173.331 137.629 174.4 136.725 174.4 136.281C174.4 135.986 174.035 135.637 173.646 135.282C173.215 134.922 172.859 134.481 172.598 133.984C172.343 133.39 171.429 131.059 171.599 130.489C171.606 130.468 171.617 130.448 171.631 130.431C171.646 130.414 171.663 130.4 171.683 130.39C171.703 130.38 171.725 130.373 171.748 130.372C171.77 130.37 171.792 130.373 171.814 130.38C171.857 130.394 171.893 130.426 171.914 130.467C171.934 130.508 171.938 130.556 171.924 130.599C171.819 130.904 172.363 132.596 172.897 133.834C173.141 134.286 173.47 134.686 173.866 135.013C174.33 135.457 174.729 135.836 174.729 136.276C174.729 137.045 173.032 138.238 172.837 138.373C172.812 138.391 172.783 138.403 172.752 138.408Z" fill="white"/>
<path d="M156.114 139.385C156.078 139.387 156.042 139.377 156.013 139.357C155.983 139.337 155.96 139.307 155.948 139.273C155.935 139.24 155.934 139.203 155.944 139.168C155.955 139.133 155.976 139.103 156.004 139.081L157.402 137.963C158.745 136.894 159.574 134.163 159.584 134.133C159.598 134.09 159.628 134.054 159.668 134.032C159.708 134.011 159.755 134.006 159.799 134.019C159.842 134.032 159.878 134.062 159.9 134.103C159.921 134.143 159.926 134.189 159.913 134.233C159.878 134.348 159.04 137.094 157.617 138.227L156.219 139.346C156.19 139.371 156.153 139.385 156.114 139.385Z" fill="white"/>
<path d="M189.303 202.391C189.278 202.39 189.254 202.384 189.231 202.373C189.209 202.361 189.189 202.345 189.173 202.326C187.386 200.135 185.772 197.808 184.346 195.366C182.414 191.912 176.857 182.461 176.797 182.386C176.282 181.249 175.9 180.056 175.659 178.831C175.624 178.641 175.599 178.467 175.574 178.332C175.389 177.074 175.309 176.555 173.637 175.476C171.964 174.398 171.859 172.521 171.72 170.509C171.69 170.034 171.655 169.545 171.6 169.061C171.375 167.064 166.073 158.077 162.204 151.547C161.325 150.049 160.526 148.711 159.877 147.598C156.413 141.637 154.016 133.799 153.991 133.719C153.979 133.675 153.984 133.628 154.005 133.588C154.026 133.548 154.063 133.518 154.106 133.504C154.127 133.497 154.15 133.495 154.172 133.497C154.194 133.499 154.216 133.506 154.235 133.516C154.255 133.527 154.272 133.542 154.286 133.559C154.3 133.577 154.31 133.597 154.316 133.619C154.341 133.699 156.727 141.502 160.172 147.423C160.821 148.536 161.62 149.889 162.498 151.372C166.388 157.937 171.71 166.934 171.939 169.021C171.994 169.52 172.029 170.019 172.064 170.489C172.199 172.486 172.314 174.223 173.821 175.192C175.624 176.35 175.714 176.954 175.913 178.277C175.913 178.442 175.963 178.611 175.993 178.801C176.23 179.99 176.602 181.147 177.102 182.251C177.146 182.336 182.708 191.787 184.645 195.232C186.063 197.653 187.665 199.962 189.438 202.136C189.452 202.154 189.463 202.174 189.469 202.195C189.476 202.216 189.478 202.239 189.475 202.261C189.473 202.284 189.466 202.305 189.456 202.325C189.445 202.344 189.431 202.362 189.413 202.376C189.379 202.393 189.341 202.398 189.303 202.391Z" fill="white"/>
<path d="M150.344 127.71C150.344 127.71 150.663 131.245 152.061 132.363C153.459 133.481 157.653 134.46 163.384 133.361C169.116 132.263 175.406 127.37 175.965 125.673C176.525 123.975 173.679 119.582 173.679 119.582C173.679 119.582 170.374 124.275 161.148 125.813C151.921 127.35 150.344 127.71 150.344 127.71Z" fill="white"/>
<path d="M158.527 134.085C155.147 134.085 152.831 133.302 151.902 132.558C150.439 131.384 150.11 127.885 150.095 127.735C150.089 127.675 150.106 127.616 150.141 127.567C150.175 127.519 150.226 127.484 150.284 127.47C150.349 127.47 151.977 127.066 161.108 125.543C170.095 124.045 173.44 119.462 173.475 119.417C173.498 119.385 173.529 119.359 173.565 119.34C173.6 119.322 173.639 119.313 173.679 119.312C173.72 119.313 173.76 119.324 173.796 119.344C173.832 119.364 173.862 119.393 173.884 119.427C174.184 119.887 176.78 123.99 176.201 125.733C175.587 127.57 169.151 132.468 163.43 133.586C161.815 133.91 160.174 134.077 158.527 134.085ZM150.619 127.91C150.714 128.678 151.118 131.285 152.217 132.168C153.465 133.167 157.464 134.245 163.335 133.097C169.106 131.969 175.232 127.071 175.731 125.573C176.126 124.385 174.513 121.384 173.654 119.996C172.766 121.06 169.201 124.704 161.173 126.037C153.774 127.276 151.288 127.745 150.619 127.91Z" fill="#2E353A"/>
<path d="M187.191 93.4473C184.909 91.9495 167.146 78.1103 165.473 77.5012C163.801 76.8921 160.481 77.5012 160.481 77.5012C160.481 77.5012 150.186 78.7593 148.029 79.628C147.825 79.7079 143.186 82.3739 143.037 82.5137C141.364 83.8816 134.05 87.2466 132.083 91.5002C129.851 96.313 149.462 125.29 150.376 127.716C151.289 130.142 156.077 130.741 160.481 130.132C164.884 129.523 168.748 128.635 171.938 124.985C172.517 124.258 173.002 123.461 173.381 122.614C173.837 121.666 173.953 120.591 173.711 119.568C172.572 114.825 169.667 101.151 167.75 92.1093C170.945 94.1712 177.59 98.3599 181.454 99.8377C186.616 101.835 190.566 100.447 190.566 98.7743C190.566 97.1018 189.467 94.965 187.191 93.4473Z" fill="white"/>
<path d="M181.03 96.3971C177.987 96.0967 175.039 95.1667 172.373 93.6662C172.373 93.6662 176.322 91.8439 176.472 90.9303C176.622 90.0166 171.005 90.7805 171.764 90.476C172.523 90.1714 173.587 89.4125 171.764 89.4125C170.312 89.317 168.88 89.0109 167.516 88.5039L167.72 92.0935C169.458 93.2169 172.214 94.9592 174.979 96.5569C177.581 97.9246 180.26 99.1398 183.002 100.196C183.002 100.196 186.342 97.0062 181.03 96.3971Z" fill="#42C8A7"/>
<g style="mix-blend-mode:multiply">
<path d="M160.453 130.126L161.017 130.046C162.235 129.457 164.297 129.088 166.304 128.589C169.34 127.83 166 127.83 160.987 125.249C155.975 122.667 153.998 118.873 149.445 113.406C144.891 107.939 143.069 105.204 143.983 104.599C144.896 103.995 142.16 103.99 141.097 103.381C140.034 102.772 142.595 102.777 144.742 100.65C146.888 98.5236 140.638 101.105 140.034 100.955C139.43 100.805 140.638 98.8281 140.638 98.8281L136.234 103.381L146.863 121.604L147.473 122.058L148.171 123.057L150.168 127.35C150.248 127.5 150.303 127.625 150.338 127.71C151.257 130.141 156.05 130.74 160.453 130.126Z" fill="#42C8A7"/>
</g>
<path d="M140.321 87.6705C143.681 87.1713 153.047 92.5133 153.047 92.5133C147.9 89.0185 143.396 85.7434 140.316 84.2656L134.639 88.2596L134.25 88.6241C134.909 88.4943 137.435 88.0799 140.321 87.6705Z" fill="#42C8A7"/>
<path opacity="0.5" d="M181.03 96.3971C177.987 96.0967 175.039 95.1667 172.373 93.6662C172.373 93.6662 176.322 91.8439 176.472 90.9303C176.622 90.0166 171.005 90.7805 171.764 90.476C172.523 90.1714 173.587 89.4125 171.764 89.4125C170.312 89.317 168.88 89.0109 167.516 88.5039L167.72 92.0935C169.458 93.2169 172.214 94.9592 174.979 96.5569C177.581 97.9246 180.26 99.1398 183.002 100.196C183.002 100.196 186.342 97.0062 181.03 96.3971Z" fill="white"/>
<path opacity="0.5" d="M160.453 130.126L161.017 130.046C162.235 129.457 164.297 129.088 166.304 128.589C169.34 127.83 166 127.83 160.987 125.249C155.975 122.667 153.998 118.873 149.445 113.406C144.891 107.939 143.069 105.204 143.983 104.599C144.896 103.995 142.16 103.99 141.097 103.381C140.034 102.772 142.595 102.777 144.742 100.65C146.888 98.5236 140.638 101.105 140.034 100.955C139.43 100.805 140.638 98.8281 140.638 98.8281L136.234 103.381L146.863 121.604L147.473 122.058L148.171 123.057L150.168 127.35C150.248 127.5 150.303 127.625 150.338 127.71C151.257 130.141 156.05 130.74 160.453 130.126Z" fill="white"/>
<path opacity="0.5" d="M140.321 87.6705C143.681 87.1713 153.047 92.5133 153.047 92.5133C147.9 89.0185 143.396 85.7434 140.316 84.2656L134.639 88.2596L134.25 88.6241C134.909 88.4943 137.435 88.0799 140.321 87.6705Z" fill="white"/>
<path d="M157.257 130.604C153.892 130.604 150.861 129.8 150.112 127.803C149.893 127.214 148.415 124.808 146.543 121.782C138.59 108.882 130.237 94.8227 131.83 91.3929C133.328 88.1577 137.756 85.4867 140.687 83.7194C141.433 83.2951 142.155 82.8284 142.848 82.3214C143.028 82.1767 147.676 79.5007 147.926 79.4008C150.092 78.5271 160.018 77.309 160.442 77.259C160.567 77.2341 163.852 76.6449 165.564 77.259C166.673 77.6634 174.266 83.4098 180.367 88.0279C183.672 90.5242 186.523 92.6909 187.332 93.2301C189.878 94.9276 190.786 97.1942 190.786 98.7519C190.768 99.041 190.678 99.321 190.525 99.5668C190.372 99.8125 190.16 100.016 189.908 100.16C188.435 101.158 185.215 101.533 181.336 100.05C178.625 99.0115 174.052 96.4503 168.09 92.621C170.087 102.132 172.828 114.943 173.922 119.496C174.179 120.575 174.057 121.71 173.577 122.711C173.187 123.582 172.684 124.398 172.08 125.137C168.744 128.947 164.686 129.785 160.472 130.365C159.407 130.518 158.333 130.598 157.257 130.604ZM163.447 77.4837C162.465 77.4985 161.486 77.587 160.517 77.7483C160.397 77.7483 150.217 79.0114 148.11 79.8601C147.836 79.9849 143.387 82.5461 143.163 82.7109C142.452 83.2332 141.71 83.7117 140.941 84.1437C138.065 85.8811 133.722 88.5072 132.284 91.6325C130.667 95.1273 141.271 112.307 146.967 121.548C148.999 124.843 150.342 127.039 150.582 127.654C151.465 130.01 156.298 130.474 160.417 129.905C164.536 129.336 168.5 128.522 171.72 124.843C172.286 124.134 172.759 123.355 173.128 122.526C173.557 121.631 173.666 120.616 173.437 119.651C172.319 114.998 169.503 101.742 167.476 92.1917C167.467 92.1429 167.471 92.0923 167.49 92.0462C167.509 92 167.54 91.9604 167.581 91.9321C167.622 91.9052 167.67 91.8909 167.719 91.8909C167.767 91.8909 167.815 91.9052 167.856 91.9321C174.037 95.9261 178.76 98.5871 181.515 99.6355C185.2 101.048 188.305 100.714 189.623 99.8053C189.805 99.7029 189.959 99.5591 190.075 99.3856C190.19 99.2121 190.263 99.0137 190.287 98.8068C190.287 97.3789 189.439 95.287 187.057 93.6994C186.233 93.1502 183.378 90.9885 180.068 88.4822C174.311 84.1287 166.433 78.1627 165.395 77.7832C164.766 77.5779 164.108 77.4767 163.447 77.4837Z" fill="#2E353A"/>
<path d="M134.494 88.3906C134.494 88.3906 132.671 90.3876 131.962 91.3113C128.158 96.1989 116.051 111.86 115.916 113.124C115.782 114.387 116.356 115.235 119.316 116.374C122.277 117.512 142.082 97.6667 142.082 97.6667" fill="white"/>
<g style="mix-blend-mode:multiply" opacity="0.8">
<path d="M134.525 88.4492L134.27 88.614C133.901 89.0234 133.102 89.917 132.483 90.6509L123.287 102.713C123.287 102.713 123.002 103.032 122.553 103.562C119.103 108.16 116.098 112.308 115.913 113.047C115.913 113.072 115.913 113.097 115.913 113.117C115.793 114.311 116.372 115.219 119.318 116.352C119.842 116.552 120.88 116.103 122.243 115.229C121.551 115.09 120.89 114.826 120.291 114.45C118.619 113.387 119.987 112.323 119.987 112.323C119.987 112.323 122.159 113.192 124.3 113.776C124.745 113.442 125.209 113.082 125.683 112.703C125.227 112.404 124.795 112.07 124.39 111.704C122.568 110.037 121.05 108.364 121.05 108.364L134.969 88.9385L134.525 88.4492Z" fill="#42C8A7"/>
</g>
<path opacity="0.5" d="M134.525 88.4492L134.27 88.614C133.901 89.0234 133.102 89.917 132.483 90.6509L123.287 102.713C123.287 102.713 123.002 103.032 122.553 103.562C119.103 108.16 116.098 112.308 115.913 113.047C115.913 113.072 115.913 113.097 115.913 113.117C115.793 114.311 116.372 115.219 119.318 116.352C119.842 116.552 120.88 116.103 122.243 115.229C121.551 115.09 120.89 114.826 120.291 114.45C118.619 113.387 119.987 112.323 119.987 112.323C119.987 112.323 122.159 113.192 124.3 113.776C124.745 113.442 125.209 113.082 125.683 112.703C125.227 112.404 124.795 112.07 124.39 111.704C122.568 110.037 121.05 108.364 121.05 108.364L134.969 88.9385L134.525 88.4492Z" fill="white"/>
<path d="M119.548 116.663C119.435 116.664 119.324 116.646 119.218 116.608C116.462 115.545 115.494 114.611 115.658 113.113C115.793 111.87 125.803 98.8348 131.754 91.1763C132.463 90.2676 134.226 88.3256 134.3 88.2457C134.322 88.2191 134.348 88.1972 134.378 88.1813C134.408 88.1654 134.441 88.1558 134.475 88.1531C134.509 88.1504 134.543 88.1547 134.576 88.1657C134.608 88.1766 134.637 88.1941 134.663 88.2169C134.688 88.2398 134.708 88.2675 134.722 88.2985C134.736 88.3294 134.744 88.363 134.745 88.397C134.745 88.431 134.739 88.4648 134.726 88.4963C134.713 88.5278 134.694 88.5563 134.67 88.5802C134.67 88.5802 132.843 90.5772 132.149 91.4858C122.533 103.857 116.252 112.37 116.173 113.168C116.058 114.232 116.552 115.061 119.418 116.164C121.48 116.958 134.001 105.44 141.914 97.5068C141.961 97.4598 142.025 97.4334 142.091 97.4334C142.158 97.4334 142.222 97.4598 142.269 97.5068C142.316 97.5538 142.342 97.6176 142.342 97.684C142.342 97.7505 142.316 97.8143 142.269 97.8613C140.286 99.8183 123.372 116.663 119.548 116.663Z" fill="#2E353A"/>
<path d="M174.568 87.4805L167.719 92.0936C168.717 91.9538 173.45 90.2763 173.45 90.2763" fill="white"/>
<path d="M167.716 92.3463C167.666 92.347 167.617 92.332 167.576 92.3034C167.535 92.2747 167.503 92.2338 167.487 92.1865C167.466 92.1345 167.463 92.0769 167.479 92.0233C167.496 91.9697 167.53 91.9233 167.576 91.8919L174.431 87.2788C174.458 87.2601 174.488 87.2468 174.52 87.2399C174.552 87.233 174.585 87.2326 174.617 87.2386C174.649 87.2447 174.68 87.2571 174.707 87.2751C174.734 87.2932 174.758 87.3165 174.776 87.3438C174.812 87.3996 174.825 87.4674 174.812 87.5328C174.799 87.5981 174.761 87.6557 174.706 87.6932L169.089 91.4776C170.812 90.9484 173.333 90.0597 173.368 90.0447C173.434 90.0229 173.506 90.0282 173.568 90.0596C173.631 90.0909 173.678 90.1458 173.7 90.212C173.722 90.2782 173.716 90.3503 173.685 90.4126C173.654 90.4749 173.599 90.5221 173.533 90.544C173.338 90.6089 168.745 92.2314 167.751 92.3712L167.716 92.3463Z" fill="#2E353A"/>
<path d="M174.288 90.3872C174.23 90.3861 174.174 90.3652 174.129 90.3279C174.085 90.2907 174.054 90.2394 174.043 90.1825C174.031 90.1177 174.046 90.0509 174.083 89.9966C174.121 89.9424 174.178 89.9051 174.243 89.893L175.78 89.6134C175.846 89.6016 175.913 89.6159 175.968 89.6532C176.023 89.6906 176.062 89.7479 176.075 89.8131C176.081 89.8459 176.081 89.8797 176.074 89.9125C176.068 89.9452 176.054 89.9763 176.035 90.0038C176.016 90.0312 175.992 90.0546 175.963 90.0724C175.935 90.0903 175.903 90.1023 175.87 90.1077L174.333 90.3872H174.288Z" fill="#2E353A"/>
<path d="M123.541 108.277C122.484 108.245 121.433 108.444 120.461 108.861L123.541 108.277Z" fill="white"/>
<path d="M120.458 109.123C120.392 109.135 120.323 109.121 120.267 109.083C120.212 109.045 120.173 108.987 120.161 108.921C120.148 108.854 120.162 108.786 120.2 108.73C120.238 108.674 120.297 108.636 120.363 108.624C121.371 108.191 122.462 107.984 123.558 108.019C123.591 108.022 123.623 108.031 123.652 108.046C123.682 108.061 123.708 108.081 123.729 108.106C123.75 108.132 123.767 108.161 123.777 108.192C123.787 108.223 123.791 108.256 123.788 108.289C123.781 108.355 123.75 108.416 123.699 108.458C123.649 108.501 123.584 108.523 123.518 108.519C122.502 108.489 121.492 108.682 120.558 109.083C120.528 109.104 120.494 109.117 120.458 109.123Z" fill="#2E353A"/>
<path d="M138.469 101.431C138.469 101.431 142.318 100.253 143.336 99.4688L138.469 101.431Z" fill="white"/>
<path d="M138.467 101.679C138.4 101.688 138.333 101.671 138.28 101.631C138.227 101.59 138.191 101.531 138.182 101.464C138.173 101.398 138.19 101.331 138.231 101.278C138.271 101.224 138.331 101.189 138.397 101.18C138.432 101.18 142.211 100.012 143.185 99.2627C143.237 99.2224 143.303 99.2046 143.369 99.213C143.434 99.2214 143.494 99.2554 143.534 99.3076C143.573 99.3604 143.59 99.4263 143.582 99.4914C143.573 99.5565 143.54 99.6159 143.489 99.6571C142.441 100.461 138.701 101.609 138.542 101.654C138.519 101.667 138.493 101.676 138.467 101.679Z" fill="#2E353A"/>
<path d="M144.281 99.0804C144.281 99.0804 144.91 98.5312 145.145 98.5312L144.281 99.0804Z" fill="white"/>
<path d="M144.277 99.3297C144.241 99.3294 144.206 99.3217 144.173 99.3071C144.141 99.2925 144.112 99.2713 144.087 99.2448C144.041 99.1973 144.016 99.1337 144.016 99.0676C144.016 99.0014 144.041 98.9378 144.087 98.8903C144.37 98.5991 144.725 98.3888 145.116 98.2813C145.182 98.2812 145.246 98.3076 145.292 98.3544C145.339 98.4012 145.366 98.4647 145.366 98.5309C145.364 98.5967 145.338 98.6594 145.291 98.706C145.244 98.7525 145.182 98.7792 145.116 98.7805C144.859 98.9101 144.623 99.0785 144.417 99.2798C144.377 99.3108 144.328 99.3283 144.277 99.3297Z" fill="#2E353A"/>
<path d="M167.719 92.3456C167.657 92.3448 167.598 92.3216 167.552 92.2802C167.506 92.2389 167.476 92.1823 167.469 92.1209L166.845 85.7055C166.842 85.6727 166.845 85.6396 166.854 85.6081C166.864 85.5765 166.88 85.5472 166.9 85.5217C166.921 85.4962 166.947 85.4751 166.976 85.4595C167.005 85.4439 167.037 85.4342 167.07 85.4309C167.102 85.4277 167.136 85.4309 167.167 85.4404C167.199 85.4499 167.228 85.4655 167.253 85.4864C167.279 85.5073 167.3 85.5329 167.316 85.562C167.331 85.591 167.341 85.6228 167.344 85.6556L167.973 92.076C167.977 92.1085 167.974 92.1414 167.964 92.1727C167.955 92.204 167.939 92.2331 167.918 92.2583C167.897 92.2834 167.871 92.3041 167.842 92.3191C167.813 92.3341 167.781 92.3431 167.749 92.3456H167.719Z" fill="#2E353A"/>
<path d="M115.902 113.187C115.902 113.187 115.018 116.567 120.684 117.97C123.375 118.634 141.184 122.962 141.184 122.962C141.184 122.962 142.776 119.548 141.868 119.548C140.959 119.548 124.539 108.629 124.539 108.629" fill="white"/>
<path d="M118.548 117.226L139.197 122.498L139.746 121.19C139.746 121.19 131.968 119.633 127.11 117.196C122.252 114.76 121.943 115.524 120.275 114.465C118.608 113.407 119.971 112.339 119.971 112.339C119.971 112.339 124.529 114.161 126.96 114.311C129.392 114.46 126.202 113.402 124.379 111.729C123.625 111.04 122.926 110.346 122.382 109.777L115.892 113.182C115.892 113.182 115.263 115.634 118.548 117.226Z" fill="#42C8A7"/>
<path opacity="0.5" d="M118.548 117.226L139.197 122.498L139.746 121.19C139.746 121.19 131.968 119.633 127.11 117.196C122.252 114.76 121.943 115.524 120.275 114.465C118.608 113.407 119.971 112.339 119.971 112.339C119.971 112.339 124.529 114.161 126.96 114.311C129.392 114.46 126.202 113.402 124.379 111.729C123.625 111.04 122.926 110.346 122.382 109.777L115.892 113.182C115.892 113.182 115.263 115.634 118.548 117.226Z" fill="white"/>
<path d="M141.183 123.255H141.123C141.123 123.255 123.314 118.906 120.623 118.262C118.377 117.708 116.854 116.764 116.1 115.511C115.661 114.817 115.504 113.981 115.661 113.175C115.678 113.111 115.72 113.057 115.777 113.023C115.834 112.99 115.901 112.98 115.965 112.995C116.029 113.013 116.083 113.054 116.115 113.111C116.148 113.168 116.157 113.236 116.14 113.3C116.027 113.982 116.169 114.682 116.54 115.267C117.224 116.415 118.641 117.264 120.743 117.763C123.24 118.387 139.076 122.256 141.043 122.725C141.657 121.367 142.041 120.049 141.867 119.845C140.918 119.845 127.164 110.708 124.418 108.861C124.363 108.824 124.325 108.766 124.311 108.701C124.298 108.635 124.311 108.568 124.348 108.512C124.366 108.484 124.389 108.461 124.417 108.443C124.444 108.425 124.474 108.413 124.506 108.407C124.539 108.401 124.572 108.401 124.603 108.408C124.635 108.415 124.666 108.428 124.692 108.447C131.158 112.755 141.073 119.211 141.877 119.336C141.958 119.337 142.038 119.358 142.109 119.397C142.181 119.436 142.241 119.492 142.286 119.56C142.7 120.214 141.717 122.441 141.402 123.11C141.383 123.152 141.352 123.188 141.313 123.214C141.274 123.239 141.229 123.253 141.183 123.255Z" fill="#2E353A"/>
<path d="M141.864 119.562C141.864 119.562 147.71 122.298 148.164 123.057C148.619 123.816 149.662 127.76 149.662 128.978C149.662 130.197 149.512 130.192 148.753 130.192C147.994 130.192 146.017 127.306 145.563 126.697C145.109 126.088 144.065 126.088 142.677 125.199C142.291 124.954 141.958 124.632 141.701 124.253C141.443 123.875 141.266 123.447 141.18 122.997L141.864 119.562Z" fill="white"/>
<path d="M148.775 130.442C148.121 130.442 147.042 129.139 145.625 127.182C145.525 127.042 145.445 126.927 145.385 126.852C145.1 126.569 144.742 126.368 144.351 126.273C143.722 126.049 143.12 125.753 142.559 125.389C142.139 125.125 141.778 124.778 141.498 124.368C141.218 123.958 141.025 123.495 140.932 123.008C140.929 122.983 140.929 122.958 140.932 122.933L141.616 119.513C141.623 119.476 141.639 119.442 141.661 119.412C141.684 119.381 141.712 119.357 141.745 119.339C141.779 119.321 141.817 119.312 141.855 119.312C141.893 119.313 141.931 119.321 141.965 119.339C142.964 119.798 147.906 122.144 148.375 122.928C148.845 123.712 149.928 127.726 149.928 128.979C149.928 130.232 149.698 130.442 148.775 130.442ZM141.436 122.988C141.525 123.398 141.695 123.785 141.936 124.128C142.177 124.471 142.484 124.762 142.839 124.985C143.369 125.326 143.937 125.604 144.531 125.814C145.012 125.939 145.447 126.199 145.784 126.563C145.844 126.638 145.929 126.752 146.029 126.897C147.856 129.423 148.525 129.953 148.775 129.953C149.434 129.953 149.434 129.953 149.434 128.989C149.434 127.811 148.395 123.932 147.936 123.193C147.646 122.694 144.277 120.996 142.03 119.933L141.436 122.988Z" fill="#2E353A"/>
<path d="M139.373 122.645C139.349 122.649 139.323 122.649 139.298 122.645C139.267 122.635 139.238 122.619 139.212 122.598C139.187 122.577 139.166 122.551 139.152 122.521C139.137 122.492 139.128 122.46 139.126 122.427C139.123 122.394 139.128 122.361 139.139 122.33L140.047 119.509C140.056 119.477 140.072 119.447 140.093 119.421C140.114 119.395 140.14 119.373 140.17 119.357C140.2 119.342 140.232 119.332 140.266 119.329C140.299 119.326 140.333 119.33 140.365 119.34C140.397 119.351 140.426 119.368 140.451 119.39C140.477 119.412 140.497 119.439 140.512 119.469C140.527 119.499 140.535 119.532 140.537 119.565C140.538 119.599 140.533 119.633 140.522 119.664L139.613 122.485C139.594 122.533 139.561 122.573 139.518 122.602C139.475 122.63 139.425 122.645 139.373 122.645Z" fill="#2E353A"/>
<path d="M183.703 98.2888C183.703 98.2888 182.206 103.451 181.576 106.487C180.947 109.522 176.719 121.674 176.719 121.674L180.363 123.95C180.363 123.95 188.411 107.275 189.944 103.621C191.477 99.9663 191.007 97.2404 189.49 95.7227" fill="white"/>
<path d="M180.362 124.216C180.316 124.215 180.271 124.201 180.232 124.176L176.587 121.899C176.539 121.87 176.502 121.824 176.483 121.771C176.464 121.717 176.464 121.659 176.483 121.605C176.523 121.485 180.736 109.438 181.33 106.458C181.924 103.477 183.452 98.2898 183.452 98.2349C183.471 98.1687 183.515 98.1126 183.575 98.0789C183.635 98.0452 183.705 98.0367 183.772 98.0552C183.838 98.0737 183.894 98.1178 183.928 98.1777C183.961 98.2376 183.97 98.3085 183.951 98.3747C183.951 98.4246 182.429 103.562 181.83 106.552C181.26 109.403 177.591 119.977 177.027 121.585L180.267 123.607C181.265 121.505 188.31 106.877 189.708 103.522C191.056 100.282 190.911 97.531 189.308 95.8984C189.262 95.8521 189.236 95.7892 189.236 95.7237C189.236 95.6581 189.262 95.5953 189.308 95.5489C189.355 95.5026 189.418 95.4766 189.483 95.4766C189.549 95.4766 189.612 95.5026 189.658 95.5489C191.415 97.3013 191.6 100.282 190.157 103.717C188.659 107.326 180.671 123.906 180.586 124.076C180.572 124.108 180.55 124.136 180.523 124.158C180.497 124.181 180.465 124.197 180.432 124.206L180.362 124.216Z" fill="#2E353A"/>
<path d="M177.406 119.938C177.681 119.938 181.141 121.845 181.141 121.845L177.406 119.938Z" fill="#2E353A"/>
<path d="M153.463 92.515C152.624 92.3752 148.146 89.4396 145.071 87.0631C141.995 84.6867 140.318 84.2673 140.318 84.2673L138.221 85.6652C137.904 84.6435 138.004 83.5376 138.501 82.5898C139.339 81.0521 142.275 79.5144 145.211 78.3961C148.146 77.2778 151.501 76.3242 153.603 76.3242C155.705 76.3242 156.259 77.163 156.259 78.2813C156.259 79.3996 156.259 82.8944 155.56 85.5504C154.861 88.2064 153.463 92.515 153.463 92.515Z" fill="white"/>
<g style="mix-blend-mode:multiply">
<path d="M152.141 77.9375C152.141 77.9375 150.848 81.8117 149.555 82.975C148.556 83.8123 147.476 84.5466 146.33 85.1667C146.33 85.1667 145.556 82.4557 143.619 82.4557C141.681 82.4557 138.711 83.7488 138.711 83.7488C138.711 83.7488 138.711 82.7154 141.162 81.4223L143.619 80.1342L149.3 77.9375H152.141Z" fill="#42C8A7"/>
</g>
<path opacity="0.5" d="M152.141 77.9375C152.141 77.9375 150.848 81.8117 149.555 82.975C148.556 83.8123 147.476 84.5466 146.33 85.1667C146.33 85.1667 145.556 82.4557 143.619 82.4557C141.681 82.4557 138.711 83.7488 138.711 83.7488C138.711 83.7488 138.711 82.7154 141.162 81.4223L143.619 80.1342L149.3 77.9375H152.141Z" fill="white"/>
<path d="M153.463 92.7636H153.418C152.49 92.6088 147.892 89.5584 144.931 87.2718C142.36 85.2748 140.772 84.6807 140.368 84.5509L138.371 85.8839C138.338 85.9036 138.302 85.9164 138.264 85.9216C138.226 85.9267 138.188 85.9241 138.151 85.9138C138.115 85.9015 138.083 85.8811 138.056 85.8543C138.029 85.8275 138.009 85.7949 137.997 85.7591C137.825 85.2202 137.763 84.6526 137.814 84.0894C137.865 83.5262 138.027 82.9788 138.291 82.479C139.29 80.6118 143.014 78.9842 145.136 78.1704C146.803 77.5364 150.967 76.0586 153.623 76.0586C155.575 76.0586 156.529 76.7775 156.529 78.2653C156.529 79.4136 156.529 82.9133 155.82 85.5993C155.111 88.2853 153.733 92.5589 153.718 92.5888C153.702 92.6428 153.668 92.6896 153.622 92.7215C153.575 92.7533 153.519 92.7682 153.463 92.7636ZM140.318 84.0167H140.378C140.448 84.0167 142.145 84.476 145.226 86.8574C148.116 89.0891 152.145 91.7451 153.299 92.1994C153.598 91.2608 154.722 87.7062 155.296 85.4495C155.99 82.8285 155.99 79.3786 155.99 78.2453C155.99 77.4016 155.705 76.5379 153.583 76.5379C151.776 76.5379 148.75 77.2967 145.281 78.6198C141.811 79.9428 139.389 81.4355 138.701 82.6987C138.287 83.4832 138.164 84.3882 138.351 85.2548L140.158 84.0516C140.206 84.022 140.262 84.0097 140.318 84.0167Z" fill="#2E353A"/>
<path d="M141.016 74.7695C142.653 76.5758 143.803 78.7702 144.356 81.145C145.264 85.0941 150.976 89.7371 152.344 89.7371C153.712 89.7371 153.617 82.9672 153.162 80.9952C152.708 79.0232 150.886 73.7061 150.886 73.7061C150.886 73.7061 143.617 70.2113 141.016 74.7695Z" fill="white"/>
<path d="M152.362 89.99C150.894 89.99 145.053 85.2171 144.129 81.2032C143.581 78.8754 142.455 76.7237 140.854 74.9475C140.815 74.9088 140.791 74.8586 140.783 74.8045C140.776 74.7504 140.787 74.6954 140.814 74.648C143.48 69.945 150.934 73.4448 151.009 73.4847C151.039 73.4989 151.066 73.5191 151.088 73.5439C151.111 73.5688 151.128 73.5979 151.138 73.6295C151.213 73.8442 152.971 78.9765 153.425 80.9435C153.819 82.671 154.004 88.3475 152.956 89.6705C152.888 89.7662 152.8 89.8449 152.696 89.9004C152.593 89.9559 152.479 89.9865 152.362 89.99ZM141.343 74.7378C142.945 76.5514 144.069 78.7359 144.613 81.0933C145.522 85.0125 151.198 89.4907 152.362 89.4907C152.362 89.4907 152.457 89.4908 152.561 89.356C153.41 88.2925 153.355 82.8657 152.936 81.0534C152.516 79.2411 150.939 74.638 150.699 73.8891C149.865 73.5197 143.7 70.9385 141.343 74.7378Z" fill="#2E353A"/>
<g style="mix-blend-mode:multiply">
<path d="M152.141 77.9375C152.141 77.9375 150.848 81.8117 149.555 82.975C148.556 83.8123 147.476 84.5466 146.33 85.1667C146.33 85.1667 145.556 82.4557 143.619 82.4557C141.681 82.4557 138.711 83.7488 138.711 83.7488C138.711 83.7488 138.711 82.7154 141.162 81.4223L143.619 80.1342L149.3 77.9375H152.141Z" fill="#42C8A7"/>
</g>
<path opacity="0.5" d="M152.141 77.9375C152.141 77.9375 150.848 81.8117 149.555 82.975C148.556 83.8123 147.476 84.5466 146.33 85.1667C146.33 85.1667 145.556 82.4557 143.619 82.4557C141.681 82.4557 138.711 83.7488 138.711 83.7488C138.711 83.7488 138.711 82.7154 141.162 81.4223L143.619 80.1342L149.3 77.9375H152.141Z" fill="white"/>
<path d="M141.016 74.7734C142.653 76.5797 143.803 78.7741 144.356 81.1489C145.264 85.098 150.976 89.741 152.344 89.741C153.712 89.741 153.617 82.9712 153.162 80.9991C152.708 79.0271 150.886 73.71 150.886 73.71C150.886 73.71 143.617 70.2153 141.016 74.7734Z" fill="white"/>
<path d="M152.362 89.99C150.894 89.99 145.053 85.2171 144.129 81.2032C143.581 78.8754 142.455 76.7237 140.854 74.9475C140.815 74.9088 140.791 74.8586 140.783 74.8045C140.776 74.7504 140.787 74.6954 140.814 74.648C143.48 69.945 150.934 73.4448 151.009 73.4847C151.039 73.4989 151.066 73.5191 151.088 73.5439C151.111 73.5688 151.128 73.5979 151.138 73.6295C151.213 73.8442 152.971 78.9765 153.425 80.9435C153.819 82.671 154.004 88.3475 152.956 89.6705C152.888 89.7662 152.8 89.8449 152.696 89.9004C152.593 89.9559 152.479 89.9865 152.362 89.99ZM141.343 74.7378C142.945 76.5514 144.069 78.7359 144.613 81.0933C145.522 85.0125 151.198 89.4907 152.362 89.4907C152.362 89.4907 152.457 89.4908 152.561 89.356C153.41 88.2925 153.355 82.8657 152.936 81.0534C152.516 79.2411 150.939 74.638 150.699 73.8891C149.865 73.5197 143.7 70.9385 141.343 74.7378Z" fill="#2E353A"/>
<path d="M136.213 67.4503C137.284 70.3632 138.609 73.1765 140.172 75.8578C142.478 79.6471 146.932 81.7939 149.403 80.8054C151.874 79.8168 153.557 76.6266 152.898 71.684C152.753 70.5956 151.804 70.1513 151.5 69.1877C150.406 65.693 149.293 62.323 148.909 61.0399C148.409 59.3874 144.455 57.7399 140.336 58.8932C136.218 60.0464 135.554 63.4913 136.213 67.4503Z" fill="white"/>
<path d="M149.899 64.4252C149.899 64.4252 148.401 65.5385 145.036 64.8945C141.671 64.2505 139.355 64.3952 139.485 65.2839C139.614 66.1726 139.874 67.3458 139.874 67.3458C139.874 67.3458 135.835 63.8511 139.495 62.9224C142.131 62.2385 143.653 63.2769 144.297 63.4217C144.941 63.5665 149.899 64.4252 149.899 64.4252Z" fill="#42C8A7"/>
<path opacity="0.5" d="M149.899 64.4252C149.899 64.4252 148.401 65.5385 145.036 64.8945C141.671 64.2505 139.355 64.3952 139.485 65.2839C139.614 66.1726 139.874 67.3458 139.874 67.3458C139.874 67.3458 135.835 63.8511 139.495 62.9224C142.131 62.2385 143.653 63.2769 144.297 63.4217C144.941 63.5665 149.899 64.4252 149.899 64.4252Z" fill="white"/>
<path d="M148.032 81.3166C145.351 81.3166 141.861 79.1249 139.964 76.0045C138.387 73.3079 137.051 70.4779 135.97 67.5472C135.967 67.534 135.967 67.5204 135.97 67.5073C135.146 62.5896 136.554 59.689 140.268 58.6505C144.577 57.4423 148.626 59.2197 149.15 60.9621C149.33 61.5662 149.649 62.6246 150.094 63.9576C150.593 65.4553 151.157 67.2676 151.736 69.1248C151.881 69.4943 152.095 69.8331 152.365 70.1233C152.769 70.5472 153.04 71.08 153.144 71.656C153.883 77.2027 151.746 80.1433 149.5 81.042C149.032 81.2263 148.534 81.3195 148.032 81.3166ZM136.464 67.3874C137.528 70.2768 138.841 73.0681 140.388 75.7299C142.71 79.5392 147.098 81.4614 149.32 80.5727C151.392 79.7439 153.359 76.9831 152.655 71.716C152.563 71.2348 152.336 70.7897 152.001 70.4329C151.685 70.087 151.442 69.6812 151.287 69.2397C150.708 67.3874 150.124 65.5702 149.644 64.0774C149.22 62.7594 148.88 61.696 148.696 61.0819C148.276 59.694 144.587 57.9416 140.428 59.0849C136.993 60.0734 135.7 62.7793 136.464 67.3874Z" fill="#2E353A"/>
<path d="M139.189 72.8876C139.189 72.8876 136.548 71.7343 136.383 72.8876C136.218 74.0408 137.381 74.8846 138.525 75.3838C138.81 75.5398 139.135 75.6074 139.458 75.578C139.782 75.5487 140.09 75.4237 140.342 75.2191" fill="white"/>
<path d="M139.356 75.8258C139.036 75.8218 138.72 75.7521 138.427 75.6211C136.795 74.9221 135.981 73.9486 136.136 72.8802C136.149 72.7581 136.192 72.641 136.261 72.5392C136.329 72.4374 136.422 72.3539 136.53 72.2961C137.324 71.8517 139.086 72.6006 139.286 72.6905C139.342 72.7201 139.385 72.77 139.406 72.8301C139.426 72.8902 139.423 72.9559 139.397 73.0139C139.371 73.0718 139.324 73.1176 139.265 73.1419C139.207 73.1662 139.141 73.1673 139.081 73.1448C138.422 72.8552 137.209 72.4908 136.77 72.7304C136.73 72.7522 136.696 72.7838 136.672 72.8223C136.647 72.8607 136.633 72.9046 136.63 72.9501C136.47 74.0634 137.808 74.8123 138.627 75.1618C138.867 75.2953 139.141 75.3556 139.416 75.3352C139.69 75.3148 139.952 75.2146 140.17 75.0469C140.218 75.0064 140.279 74.9854 140.342 74.9883C140.405 74.9911 140.464 75.0176 140.509 75.0624C140.553 75.1072 140.578 75.167 140.58 75.2298C140.582 75.2927 140.561 75.3539 140.519 75.4014C140.199 75.6847 139.783 75.8363 139.356 75.8258Z" fill="#2E353A"/>
<path d="M149.964 66.3686C149.964 66.3686 147.024 65.6697 148.282 69.5888C148.531 70.3626 150.244 71.2663 150.244 71.2663C150.244 71.2663 150.104 72.5244 149.405 72.6642" fill="white"/>
<path d="M149.404 72.9139C149.347 72.913 149.292 72.8928 149.247 72.8566C149.203 72.8203 149.172 72.7702 149.16 72.7142C149.153 72.6817 149.153 72.6483 149.16 72.6158C149.166 72.5833 149.179 72.5525 149.198 72.5251C149.216 72.4977 149.24 72.4742 149.268 72.4561C149.296 72.438 149.327 72.4256 149.359 72.4196C149.719 72.3448 149.904 71.7506 149.974 71.4211C149.514 71.1615 148.286 70.4226 148.051 69.6837C147.582 68.2259 147.622 67.1875 148.166 66.5984C148.835 65.8744 149.974 66.139 150.023 66.149C150.088 66.1644 150.143 66.2046 150.178 66.2607C150.212 66.3168 150.223 66.3844 150.208 66.4486C150.201 66.4807 150.188 66.511 150.169 66.5378C150.15 66.5646 150.126 66.5873 150.098 66.6045C150.07 66.6218 150.039 66.6332 150.006 66.6381C149.974 66.6431 149.94 66.6414 149.909 66.6333C149.909 66.6333 149 66.4286 148.531 66.9378C148.061 67.4471 148.121 68.2758 148.531 69.529C148.69 70.0282 149.744 70.7322 150.368 71.0617C150.411 71.0864 150.447 71.1231 150.47 71.1674C150.493 71.2117 150.502 71.2616 150.498 71.3113C150.498 71.4611 150.313 72.7591 149.459 72.9289L149.404 72.9139Z" fill="#2E353A"/>
<path d="M147.865 75.4615C147.865 75.4615 145.768 75.8809 144.93 74.9023L147.865 75.4615Z" fill="white"/>
<path d="M146.861 75.8227C146.476 75.8533 146.088 75.8034 145.723 75.6762C145.358 75.549 145.023 75.3472 144.74 75.0838C144.718 75.0589 144.702 75.03 144.692 74.9988C144.682 74.9676 144.678 74.9348 144.68 74.9021C144.683 74.8694 144.692 74.8376 144.707 74.8083C144.722 74.7791 144.742 74.7531 144.767 74.7318C144.792 74.7105 144.821 74.6943 144.852 74.6841C144.883 74.674 144.916 74.6701 144.949 74.6726C144.981 74.6752 145.013 74.6841 145.043 74.699C145.072 74.7139 145.098 74.7343 145.119 74.7593C145.853 75.618 147.8 75.2585 147.82 75.2585C147.852 75.2513 147.885 75.2506 147.917 75.2566C147.949 75.2626 147.98 75.2751 148.007 75.2933C148.034 75.3116 148.057 75.3352 148.075 75.3627C148.092 75.3902 148.104 75.421 148.11 75.4532C148.116 75.4853 148.116 75.5185 148.11 75.5506C148.104 75.5828 148.091 75.6135 148.073 75.6408C148.055 75.6682 148.032 75.6917 148.005 75.7101C147.977 75.7284 147.947 75.7412 147.915 75.7478C147.567 75.803 147.214 75.828 146.861 75.8227Z" fill="#2E353A"/>
<path d="M144.789 68.8914C144.789 68.8914 143.251 68.3323 142.413 69.0312C141.964 69.3437 141.616 69.7812 141.414 70.2894" fill="white"/>
<path d="M141.435 70.533H141.375C141.343 70.5248 141.314 70.5105 141.287 70.4908C141.261 70.471 141.239 70.4463 141.222 70.418C141.205 70.3897 141.195 70.3584 141.19 70.3259C141.185 70.2933 141.187 70.2602 141.196 70.2284C141.404 69.6719 141.772 69.1891 142.254 68.8405C143.193 68.0617 144.81 68.6358 144.875 68.6608C144.906 68.6714 144.935 68.6881 144.96 68.7101C144.984 68.7321 145.004 68.7588 145.018 68.7886C145.032 68.8185 145.04 68.8508 145.041 68.8838C145.042 68.9167 145.037 68.9495 145.025 68.9803C145.002 69.0425 144.956 69.0932 144.896 69.1213C144.836 69.1494 144.767 69.1526 144.705 69.1301C144.705 69.1301 143.292 68.6308 142.573 69.2249C142.178 69.512 141.869 69.9023 141.68 70.3532C141.664 70.4055 141.631 70.4512 141.587 70.4836C141.543 70.5159 141.49 70.5332 141.435 70.533Z" fill="#2E353A"/>
<path d="M144.75 71.2798C144.95 71.7441 144.91 72.2034 144.66 72.3083C144.411 72.4131 144.051 72.1286 143.852 71.6642C143.652 71.1999 143.697 70.7456 143.947 70.6358C144.196 70.526 144.556 70.8305 144.75 71.2798Z" fill="#2E353A"/>
<path d="M149.774 68.8335C149.973 69.2928 149.928 69.7521 149.684 69.8619C149.439 69.9718 149.07 69.6772 148.875 69.2179C148.68 68.7586 148.715 68.2943 148.965 68.1894C149.214 68.0846 149.574 68.3742 149.774 68.8335Z" fill="#2E353A"/>
<path d="M138.453 73.5527C138.453 73.5527 140.12 72.3396 139.816 71.2762C139.511 70.2127 138.907 70.2127 139.516 69.6087C140.125 69.0046 140.575 68.695 140.425 67.7864C140.275 66.8777 137.844 65.355 138.603 64.4464C139.361 63.5377 139.057 62.4494 145.283 63.9871C151.508 65.5248 155.457 63.0784 153.635 60.8018C151.813 58.5252 150.295 58.2207 150.295 58.2207C150.295 58.2207 153.79 56.7229 150.904 55.1803C148.018 53.6376 141.488 53.6825 137.844 56.5482C134.199 59.4139 134.958 61.8453 134.958 61.8453C134.958 61.8453 132.986 62.1498 132.831 65.1903C132.676 68.2307 138.453 73.5527 138.453 73.5527Z" fill="#2E353A"/>
<path d="M148.39 63.3811C147.063 63.3254 145.757 63.0346 144.531 62.5224C143.571 62.1128 142.548 61.8697 141.506 61.8034C139.094 61.8034 138.595 63.1714 138.575 63.2313C138.568 63.2526 138.557 63.2724 138.543 63.2893C138.528 63.3062 138.51 63.32 138.49 63.3298C138.47 63.3396 138.448 63.3452 138.426 63.3463C138.404 63.3474 138.381 63.344 138.36 63.3362C138.339 63.3294 138.319 63.3184 138.302 63.3039C138.285 63.2894 138.271 63.2717 138.261 63.2517C138.251 63.2317 138.244 63.21 138.243 63.1876C138.241 63.1653 138.244 63.1428 138.251 63.1215C138.276 63.0566 138.835 61.459 141.506 61.459C142.588 61.523 143.65 61.7747 144.646 62.2029C146.199 62.757 147.811 63.3312 149.838 62.8818C150.937 62.6372 151.581 62.2428 151.74 61.7186C151.95 61.0446 151.301 60.3406 151.296 60.3307C151.264 60.2988 151.247 60.2558 151.247 60.2108C151.247 60.1659 151.264 60.1228 151.296 60.091C151.329 60.0601 151.373 60.043 151.418 60.043C151.464 60.043 151.507 60.0601 151.541 60.091C151.571 60.126 152.33 60.9497 152.065 61.8134C151.86 62.4675 151.136 62.9368 149.908 63.2113C149.41 63.3216 148.901 63.3785 148.39 63.3811Z" fill="white"/>
<path d="M137.246 62.9623C137.201 62.9584 137.158 62.937 137.129 62.9024C137.099 62.8679 137.083 62.8231 137.086 62.7775C137.086 62.7426 137.381 59.4475 140.301 58.7086C142.024 58.2743 144.016 58.5988 145.618 58.8584C146.617 59.0232 147.511 59.1679 147.885 59.0232C147.926 59.0143 147.969 59.0207 148.006 59.0409C148.043 59.0612 148.071 59.094 148.086 59.1335C148.1 59.1729 148.1 59.2163 148.085 59.2556C148.07 59.295 148.042 59.3276 148.005 59.3477C147.546 59.5174 146.672 59.3776 145.564 59.1979C143.991 58.9383 142.034 58.6237 140.386 59.0381C137.7 59.7221 137.431 62.7725 137.426 62.8025C137.424 62.8248 137.419 62.8466 137.409 62.8667C137.399 62.8869 137.386 62.9048 137.369 62.9197C137.352 62.9345 137.333 62.9459 137.312 62.9532C137.291 62.9605 137.268 62.9636 137.246 62.9623Z" fill="white"/>
<path d="M135.314 68.117C135.28 68.1164 135.247 68.106 135.219 68.087C134.771 67.7111 134.423 67.2294 134.208 66.6855C133.993 66.1415 133.916 65.5525 133.986 64.9717C134.126 62.775 135.813 62.75 135.833 62.75C135.874 62.7569 135.911 62.778 135.937 62.8096C135.964 62.8411 135.978 62.881 135.978 62.9222C135.978 62.9635 135.964 63.0034 135.937 63.0349C135.911 63.0664 135.874 63.0875 135.833 63.0945C135.773 63.0945 134.445 63.1244 134.335 64.9916C134.268 65.514 134.331 66.0451 134.521 66.5367C134.71 67.0283 135.018 67.465 135.419 67.8074C135.437 67.8199 135.453 67.836 135.465 67.8547C135.477 67.8734 135.485 67.8943 135.489 67.9162C135.493 67.9381 135.492 67.9606 135.487 67.9822C135.481 68.0039 135.472 68.0242 135.459 68.0421C135.444 68.0664 135.422 68.0862 135.397 68.0994C135.371 68.1126 135.343 68.1186 135.314 68.117Z" fill="white"/>
<path d="M136.35 66.6984C136.317 66.6985 136.285 66.689 136.258 66.6713C136.231 66.6536 136.209 66.6284 136.195 66.5986C136.072 66.3708 135.999 66.1193 135.981 65.861C135.963 65.6027 136 65.3435 136.09 65.1008C136.311 64.625 136.703 64.2503 137.189 64.0524C137.209 64.0436 137.232 64.039 137.254 64.0391C137.276 64.0391 137.299 64.0437 137.319 64.0526C137.34 64.0614 137.358 64.0744 137.374 64.0907C137.389 64.107 137.401 64.1262 137.409 64.1473C137.425 64.189 137.424 64.2355 137.406 64.2766C137.389 64.3178 137.355 64.3503 137.314 64.3669C136.916 64.5353 136.593 64.8422 136.405 65.2306C136.334 65.43 136.307 65.6421 136.324 65.8529C136.341 66.0637 136.403 66.2685 136.505 66.4538C136.524 66.4956 136.525 66.543 136.509 66.586C136.494 66.6289 136.461 66.6639 136.42 66.6835C136.398 66.6932 136.374 66.6983 136.35 66.6984Z" fill="white"/>
<path d="M136.738 69.4053C136.71 69.4048 136.683 69.3977 136.659 69.3847C136.635 69.3716 136.614 69.3531 136.598 69.3305L135.954 68.4318C135.927 68.3947 135.917 68.3486 135.924 68.3037C135.932 68.2588 135.957 68.2186 135.994 68.1922C136.031 68.1657 136.077 68.155 136.122 68.1625C136.167 68.17 136.207 68.195 136.233 68.2321L136.877 69.1357C136.903 69.1723 136.913 69.2173 136.906 69.2612C136.898 69.3051 136.874 69.3443 136.838 69.3704C136.809 69.3934 136.774 69.4058 136.738 69.4053Z" fill="white"/>
</svg>
